<?xml version="1.0" standalone="no"?>
<!DOCTYPE svg PUBLIC "-//W3C//DTD SVG 20010904//EN"
 "http://www.w3.org/TR/2001/REC-SVG-20010904/DTD/svg10.dtd">
<svg version="1.0" xmlns="http://www.w3.org/2000/svg"
 width="5402.000000pt" height="6000.000000pt" viewBox="0 0 5402.000000 6000.000000"
 preserveAspectRatio="xMidYMid meet">

<g transform="translate(0.000000,6000.000000) scale(0.100000,-0.100000)"
fill="#000000" stroke="none">
<path d="M28060 58146 c0 -22 -5 -25 -60 -31 -55 -6 -60 -9 -60 -31 0 -20 -5
-24 -30 -24 -27 0 -30 -3 -30 -30 0 -27 -3 -30 -30 -30 -27 0 -30 -3 -30 -30
0 -27 -3 -30 -30 -30 -27 0 -30 -3 -30 -30 0 -27 -3 -30 -30 -30 -25 0 -30 -4
-30 -24 0 -19 -6 -25 -27 -28 -22 -2 -29 -9 -31 -30 -3 -24 -8 -27 -58 -34
-51 -6 -54 -8 -54 -35 0 -26 -4 -29 -30 -29 -25 0 -30 -4 -30 -25 0 -21 -5
-25 -30 -25 -27 0 -30 -3 -30 -30 0 -27 -3 -30 -30 -30 -27 0 -30 -3 -30 -30
0 -27 -3 -30 -30 -30 -27 0 -30 -3 -30 -30 0 -25 -4 -30 -25 -30 -20 0 -25 -5
-25 -25 0 -21 -5 -25 -30 -25 -27 0 -30 -3 -30 -30 0 -27 -3 -30 -30 -30 -26
0 -30 -3 -30 -29 0 -27 -3 -29 -55 -36 -50 -6 -55 -9 -55 -31 0 -20 -5 -24
-30 -24 -27 0 -30 -3 -30 -30 0 -27 -3 -30 -30 -30 -27 0 -30 -3 -30 -30 0
-27 -3 -30 -29 -30 -25 0 -30 -4 -33 -27 -2 -22 -9 -29 -30 -31 -22 -3 -28 -9
-28 -28 0 -20 -5 -24 -30 -24 -27 0 -30 -3 -30 -30 0 -27 -3 -30 -30 -30 -27
0 -30 -3 -30 -30 0 -27 -3 -30 -30 -30 -27 0 -30 -3 -30 -30 0 -30 -1 -30 -55
-30 -54 0 -55 0 -55 -30 0 -27 -3 -30 -30 -30 -27 0 -30 -3 -30 -30 0 -27 -3
-30 -30 -30 -25 0 -30 -4 -30 -24 0 -19 -6 -25 -27 -28 -22 -2 -29 -9 -31 -30
-3 -21 -9 -27 -30 -30 -21 -2 -28 -9 -30 -30 -3 -22 -9 -28 -27 -28 -18 0 -24
-6 -27 -27 -2 -22 -9 -29 -30 -31 -22 -3 -28 -9 -28 -28 0 -20 -5 -24 -30 -24
-26 0 -30 -3 -30 -29 0 -27 -3 -29 -54 -35 -50 -7 -55 -10 -58 -34 -2 -21 -9
-28 -30 -30 -21 -3 -27 -9 -30 -30 -2 -21 -9 -28 -30 -30 -22 -3 -28 -9 -28
-28 0 -20 -5 -24 -30 -24 -27 0 -30 -3 -30 -30 0 -27 -3 -30 -30 -30 -27 0
-30 -3 -30 -30 0 -27 -3 -30 -30 -30 -25 0 -30 -4 -30 -24 0 -19 -6 -25 -27
-28 -22 -2 -29 -9 -31 -30 -3 -21 -9 -27 -30 -30 -21 -2 -28 -9 -30 -29 -3
-24 -8 -27 -58 -34 -49 -6 -54 -9 -54 -31 0 -20 -5 -24 -30 -24 -27 0 -30 -3
-30 -30 0 -27 -3 -30 -30 -30 -27 0 -30 -3 -30 -30 0 -27 -3 -30 -30 -30 -25
0 -30 -4 -30 -24 0 -19 -6 -25 -27 -28 -22 -2 -29 -9 -31 -30 -3 -22 -9 -28
-28 -28 -20 0 -24 -5 -24 -30 0 -27 -3 -30 -30 -30 -27 0 -30 -3 -30 -30 0
-27 -3 -30 -30 -30 -27 0 -30 -3 -30 -30 0 -30 -1 -30 -55 -30 -54 0 -55 0
-55 -30 0 -27 -3 -30 -29 -30 -25 0 -30 -4 -33 -27 -2 -22 -9 -29 -30 -31 -22
-3 -28 -9 -28 -28 0 -20 -5 -24 -30 -24 -27 0 -30 -3 -30 -30 0 -27 -3 -30
-30 -30 -27 0 -30 -3 -30 -30 0 -27 -3 -30 -30 -30 -27 0 -30 -3 -30 -30 0
-27 -3 -30 -30 -30 -25 0 -30 -4 -30 -24 0 -19 -6 -25 -27 -28 -22 -2 -29 -9
-31 -30 -3 -24 -8 -27 -58 -34 -51 -6 -54 -8 -54 -35 0 -26 -4 -29 -30 -29
-25 0 -30 -4 -30 -25 0 -21 -5 -25 -30 -25 -27 0 -30 -3 -30 -30 0 -27 -3 -30
-30 -30 -27 0 -30 -3 -30 -30 0 -27 -3 -30 -30 -30 -27 0 -30 -3 -30 -30 0
-25 -4 -30 -25 -30 -20 0 -25 -5 -25 -25 0 -21 -5 -25 -30 -25 -27 0 -30 -3
-30 -30 0 -27 -3 -30 -30 -30 -26 0 -30 -3 -30 -29 0 -27 -3 -29 -55 -36 -50
-6 -55 -9 -55 -31 0 -20 -5 -24 -30 -24 -27 0 -30 -3 -30 -30 0 -27 -3 -30
-30 -30 -27 0 -30 -3 -30 -30 0 -27 -3 -30 -30 -30 -25 0 -30 -4 -30 -25 0
-21 -5 -25 -30 -25 -27 0 -30 -3 -30 -30 0 -27 -3 -30 -30 -30 -27 0 -30 -3
-30 -30 0 -27 -3 -30 -30 -30 -27 0 -30 -3 -30 -30 0 -27 -3 -30 -30 -30 -25
0 -30 -4 -30 -24 0 -22 -5 -25 -55 -31 -52 -7 -55 -9 -55 -36 0 -26 -4 -29
-30 -29 -27 0 -30 -3 -30 -30 0 -27 -3 -30 -30 -30 -25 0 -30 -4 -30 -24 0
-19 -6 -25 -27 -28 -22 -2 -29 -9 -31 -30 -3 -22 -9 -28 -28 -28 -20 0 -24 -5
-24 -30 0 -27 -3 -30 -29 -30 -25 0 -30 -4 -33 -27 -2 -22 -9 -29 -30 -31 -22
-3 -28 -9 -28 -28 0 -20 -5 -24 -30 -24 -26 0 -30 -3 -30 -29 0 -27 -3 -29
-54 -35 -50 -7 -55 -10 -58 -34 -2 -21 -9 -28 -30 -30 -22 -3 -28 -9 -28 -28
0 -20 -5 -24 -30 -24 -27 0 -30 -3 -30 -30 0 -27 -3 -30 -30 -30 -27 0 -30 -3
-30 -30 0 -27 -3 -30 -30 -30 -27 0 -30 -3 -30 -30 0 -27 -3 -30 -30 -30 -25
0 -30 -4 -30 -24 0 -19 -6 -25 -27 -28 -22 -2 -29 -9 -31 -30 -3 -21 -9 -27
-30 -30 -21 -2 -28 -9 -30 -29 -3 -24 -8 -27 -58 -34 -49 -6 -54 -9 -54 -31 0
-20 -5 -24 -30 -24 -27 0 -30 -3 -30 -30 0 -25 -4 -30 -24 -30 -19 0 -25 -6
-28 -27 -2 -23 -8 -29 -35 -31 -29 -3 -33 -7 -33 -33 0 -26 -3 -29 -30 -29
-25 0 -30 -4 -30 -25 0 -20 -5 -25 -25 -25 -21 0 -25 -5 -25 -30 0 -27 -3 -30
-30 -30 -27 0 -30 -3 -30 -30 0 -27 -3 -30 -30 -30 -25 0 -30 -4 -30 -24 0
-22 -5 -25 -55 -31 -52 -7 -55 -9 -55 -36 0 -25 -4 -29 -29 -29 -25 0 -30 -4
-33 -27 -2 -22 -9 -29 -30 -31 -22 -3 -28 -9 -28 -28 0 -20 -5 -24 -30 -24
-27 0 -30 -3 -30 -30 0 -27 -3 -30 -30 -30 -27 0 -30 -3 -30 -30 0 -27 -3 -30
-30 -30 -27 0 -30 -3 -30 -30 0 -27 -3 -30 -30 -30 -25 0 -30 -4 -30 -24 0
-19 -6 -25 -27 -28 -22 -2 -29 -9 -31 -30 -3 -24 -8 -27 -58 -34 -51 -6 -54
-8 -54 -35 0 -26 -4 -29 -30 -29 -27 0 -30 -3 -30 -30 0 -25 -4 -30 -25 -30
-20 0 -25 -5 -25 -25 0 -21 -5 -25 -29 -25 -25 0 -30 -4 -33 -27 -2 -23 -8
-29 -35 -31 -27 -3 -33 -7 -33 -28 0 -19 -5 -24 -25 -24 -21 0 -25 -5 -25 -30
0 -27 -3 -30 -30 -30 -27 0 -30 -3 -30 -30 0 -27 -3 -30 -30 -30 -26 0 -30 -3
-30 -29 0 -27 -3 -29 -55 -36 -50 -6 -55 -9 -55 -31 0 -20 -5 -24 -30 -24 -27
0 -30 -3 -30 -30 0 -27 -3 -30 -29 -30 -25 0 -30 -4 -33 -27 -2 -22 -9 -29
-30 -31 -22 -3 -28 -9 -28 -28 0 -20 -5 -24 -30 -24 -27 0 -30 -3 -30 -30 0
-27 -3 -30 -30 -30 -27 0 -30 -3 -30 -30 0 -27 -3 -30 -30 -30 -27 0 -30 -3
-30 -30 0 -27 -3 -30 -30 -30 -25 0 -30 -4 -30 -24 0 -22 -5 -25 -55 -31 -52
-7 -55 -9 -55 -36 0 -26 -4 -29 -30 -29 -27 0 -30 -3 -30 -30 0 -25 -4 -30
-25 -30 -20 0 -25 -5 -25 -25 0 -21 -5 -25 -30 -25 -27 0 -30 -3 -30 -29 0
-26 -4 -30 -32 -33 -28 -2 -34 -8 -36 -30 -3 -22 -9 -28 -27 -28 -18 0 -24 -6
-27 -27 -2 -22 -9 -29 -30 -31 -22 -3 -28 -9 -28 -28 0 -20 -5 -24 -30 -24
-26 0 -30 -3 -30 -29 0 -27 -3 -29 -54 -35 -50 -7 -55 -10 -58 -34 -2 -21 -9
-28 -30 -30 -22 -3 -28 -9 -28 -28 0 -20 -5 -24 -30 -24 -27 0 -30 -3 -30 -30
0 -27 -3 -30 -30 -30 -27 0 -30 -3 -30 -30 0 -27 -3 -30 -30 -30 -27 0 -30 -3
-30 -30 0 -27 -3 -30 -30 -30 -25 0 -30 -4 -30 -24 0 -19 -6 -25 -27 -28 -22
-2 -29 -9 -31 -30 -3 -21 -9 -27 -30 -30 -21 -2 -28 -9 -30 -29 -3 -24 -8 -27
-58 -34 -49 -6 -54 -9 -54 -31 0 -20 -5 -24 -30 -24 -27 0 -30 -3 -30 -30 0
-27 -3 -30 -30 -30 -27 0 -30 -3 -30 -30 0 -27 -3 -30 -30 -30 -25 0 -30 -4
-30 -24 0 -19 -6 -25 -27 -28 -22 -2 -29 -9 -31 -30 -3 -22 -9 -28 -28 -28
-20 0 -24 -5 -24 -30 0 -27 -3 -30 -30 -30 -27 0 -30 -3 -30 -30 0 -27 -3 -30
-30 -30 -25 0 -30 -4 -30 -24 0 -22 -5 -25 -55 -31 -52 -7 -55 -9 -55 -36 0
-25 -4 -29 -29 -29 -25 0 -30 -4 -33 -27 -2 -22 -9 -29 -30 -31 -22 -3 -28 -9
-28 -28 0 -20 -5 -24 -30 -24 -27 0 -30 -3 -30 -30 0 -27 -3 -30 -30 -30 -27
0 -30 -3 -30 -30 0 -27 -3 -30 -30 -30 -27 0 -30 -3 -30 -30 0 -27 -3 -30 -30
-30 -25 0 -30 -4 -30 -24 0 -19 -6 -25 -27 -28 -22 -2 -29 -9 -31 -30 -3 -24
-8 -27 -58 -34 -51 -6 -54 -8 -54 -35 0 -24 -4 -29 -25 -29 -20 0 -25 -5 -25
-25 0 -22 -4 -25 -35 -25 -32 0 -35 -2 -35 -30 0 -27 -3 -30 -30 -30 -27 0
-30 -3 -30 -30 0 -25 -4 -30 -24 -30 -19 0 -25 -6 -28 -27 -2 -22 -9 -29 -30
-31 -22 -3 -28 -9 -28 -28 0 -20 -5 -24 -30 -24 -27 0 -30 -3 -30 -30 0 -27
-3 -30 -30 -30 -26 0 -30 -3 -30 -29 0 -27 -3 -29 -55 -36 -50 -6 -55 -9 -55
-31 0 -20 -5 -24 -30 -24 -27 0 -30 -3 -30 -30 0 -27 -3 -30 -30 -30 -27 0
-30 -3 -30 -30 0 -27 -3 -30 -30 -30 -25 0 -30 -4 -30 -25 0 -21 -5 -25 -30
-25 -27 0 -30 -3 -30 -30 0 -27 -3 -30 -30 -30 -27 0 -30 -3 -30 -30 0 -27 -3
-30 -30 -30 -27 0 -30 -3 -30 -30 0 -27 -3 -30 -30 -30 -25 0 -30 -4 -30 -24
0 -22 -5 -25 -55 -31 -52 -7 -55 -9 -55 -36 0 -24 -4 -29 -24 -29 -19 0 -25
-6 -28 -27 -2 -22 -9 -29 -30 -31 -22 -3 -28 -9 -28 -28 0 -20 -5 -24 -30 -24
-27 0 -30 -3 -30 -29 0 -26 -4 -30 -32 -33 -28 -2 -34 -8 -36 -30 -3 -22 -9
-28 -27 -28 -18 0 -24 -6 -27 -27 -2 -22 -9 -29 -30 -31 -22 -3 -28 -9 -28
-28 0 -20 -5 -24 -30 -24 -26 0 -30 -3 -30 -29 0 -27 -3 -29 -54 -35 -50 -7
-55 -10 -58 -34 -2 -21 -9 -28 -30 -30 -22 -3 -28 -9 -28 -28 0 -20 -5 -24
-30 -24 -27 0 -30 -3 -30 -30 0 -27 -3 -30 -30 -30 -27 0 -30 -3 -30 -30 0
-27 -3 -30 -30 -30 -25 0 -30 -4 -30 -24 0 -19 -6 -25 -27 -28 -22 -2 -29 -9
-31 -30 -3 -21 -9 -27 -30 -30 -21 -2 -28 -9 -30 -30 -3 -21 -9 -27 -30 -30
-21 -2 -28 -9 -30 -29 -3 -24 -8 -27 -58 -34 -49 -6 -54 -9 -54 -31 0 -19 -5
-24 -24 -24 -19 0 -25 -6 -28 -27 -2 -22 -9 -29 -30 -31 -21 -3 -27 -9 -30
-30 -2 -21 -9 -28 -30 -30 -22 -3 -28 -9 -28 -27 0 -19 -6 -24 -32 -27 -28 -2
-34 -8 -36 -30 -3 -22 -9 -28 -28 -28 -20 0 -24 -5 -24 -30 0 -27 -3 -30 -30
-30 -27 0 -30 -3 -30 -30 0 -27 -3 -30 -30 -30 -25 0 -30 -4 -30 -24 0 -22 -5
-25 -55 -31 -52 -7 -55 -9 -55 -36 0 -26 -4 -29 -30 -29 -27 0 -30 -3 -30 -30
0 -27 -3 -30 -30 -30 -25 0 -30 -4 -30 -25 0 -21 -5 -25 -30 -25 -27 0 -30 -3
-30 -30 0 -27 -3 -30 -30 -30 -27 0 -30 -3 -30 -30 0 -27 -3 -30 -30 -30 -27
0 -30 -3 -30 -30 0 -27 -3 -30 -30 -30 -25 0 -30 -4 -30 -24 0 -19 -6 -25 -27
-28 -22 -2 -29 -9 -31 -30 -3 -24 -8 -27 -58 -34 -51 -6 -54 -8 -54 -35 0 -24
-4 -29 -25 -29 -20 0 -25 -5 -25 -25 0 -21 -5 -25 -30 -25 -27 0 -30 -3 -30
-30 0 -27 -3 -30 -29 -30 -25 0 -30 -4 -33 -27 -2 -23 -8 -29 -35 -31 -27 -3
-33 -7 -33 -28 0 -19 -5 -24 -25 -24 -21 0 -25 -5 -25 -30 0 -27 -3 -30 -30
-30 -27 0 -30 -3 -30 -30 0 -27 -3 -30 -30 -30 -26 0 -30 -3 -30 -29 0 -27 -3
-29 -55 -36 -50 -6 -55 -9 -55 -31 0 -20 -5 -24 -30 -24 -27 0 -30 -3 -30 -30
0 -27 -3 -30 -30 -30 -27 0 -30 -3 -30 -30 0 -27 -3 -30 -30 -30 -25 0 -30 -4
-30 -25 0 -21 -5 -25 -30 -25 -27 0 -30 -3 -30 -30 0 -27 -3 -30 -30 -30 -27
0 -30 -3 -30 -30 0 -27 -3 -30 -30 -30 -27 0 -30 -3 -30 -30 0 -27 -3 -30 -30
-30 -25 0 -30 -4 -30 -24 0 -22 -5 -25 -55 -31 -52 -7 -55 -9 -55 -36 0 -24
-4 -29 -24 -29 -19 0 -25 -6 -28 -27 -2 -22 -9 -29 -30 -31 -22 -3 -28 -9 -28
-28 0 -20 -5 -24 -30 -24 -27 0 -30 -3 -30 -30 0 -27 -3 -30 -30 -30 -27 0
-30 -3 -30 -30 0 -27 -3 -30 -29 -30 -25 0 -30 -4 -33 -27 -2 -22 -9 -29 -30
-31 -22 -3 -28 -9 -28 -28 0 -20 -5 -24 -30 -24 -26 0 -30 -3 -30 -29 0 -27
-3 -29 -54 -35 -50 -7 -55 -10 -58 -34 -2 -21 -9 -28 -30 -30 -22 -3 -28 -9
-28 -28 0 -20 -5 -24 -30 -24 -27 0 -30 -3 -30 -30 0 -27 -3 -30 -30 -30 -27
0 -30 -3 -30 -30 0 -27 -3 -30 -30 -30 -27 0 -30 -3 -30 -30 0 -27 -3 -30 -30
-30 -25 0 -30 -4 -30 -24 0 -19 -6 -25 -27 -28 -22 -2 -29 -9 -31 -30 -3 -21
-9 -27 -30 -30 -21 -2 -28 -9 -30 -30 -3 -27 -6 -28 -58 -28 -53 0 -54 0 -54
-30 0 -25 -4 -30 -24 -30 -19 0 -25 -6 -28 -27 -2 -22 -9 -29 -30 -31 -21 -3
-27 -9 -30 -30 -2 -21 -9 -28 -30 -30 -22 -3 -28 -9 -28 -27 0 -19 -6 -24 -32
-27 -28 -2 -34 -8 -36 -30 -3 -22 -9 -28 -28 -28 -20 0 -24 -5 -24 -30 0 -27
-3 -30 -30 -30 -27 0 -30 -3 -30 -30 0 -27 -3 -30 -30 -30 -25 0 -30 -4 -30
-24 0 -22 -5 -25 -55 -31 -52 -7 -55 -9 -55 -36 0 -25 -4 -29 -29 -29 -25 0
-30 -4 -33 -27 -2 -22 -9 -29 -30 -31 -22 -3 -28 -9 -28 -28 0 -20 -5 -24 -30
-24 -27 0 -30 -3 -30 -30 0 -27 -3 -30 -30 -30 -27 0 -30 -3 -30 -30 0 -27 -3
-30 -30 -30 -27 0 -30 -3 -30 -30 0 -27 -3 -30 -30 -30 -25 0 -30 -4 -30 -24
0 -19 -6 -25 -27 -28 -22 -2 -29 -9 -31 -30 -3 -24 -8 -27 -58 -34 -51 -6 -54
-8 -54 -35 0 -24 -4 -29 -25 -29 -20 0 -25 -5 -25 -25 0 -22 -4 -25 -35 -25
-32 0 -35 -2 -35 -30 0 -27 -3 -30 -30 -30 -27 0 -30 -3 -30 -30 0 -25 -4 -30
-25 -30 -20 0 -25 -5 -25 -25 0 -21 -5 -25 -30 -25 -27 0 -30 -3 -30 -30 0
-27 -3 -30 -30 -30 -27 0 -30 -3 -30 -30 0 -27 -3 -30 -30 -30 -27 0 -30 -3
-30 -30 0 -30 -1 -30 -55 -30 -54 0 -55 0 -55 -30 0 -27 -3 -30 -30 -30 -27 0
-30 -3 -30 -30 0 -27 -3 -30 -30 -30 -27 0 -30 -3 -30 -30 0 -27 -3 -30 -30
-30 -25 0 -30 -4 -30 -24 0 -19 -6 -25 -27 -28 -22 -2 -29 -9 -31 -30 -3 -24
-8 -28 -33 -28 -26 0 -29 -3 -29 -30 0 -27 -3 -30 -30 -30 -27 0 -30 -3 -30
-30 0 -27 -3 -30 -30 -30 -25 0 -30 -4 -30 -24 0 -22 -5 -25 -55 -31 -52 -7
-55 -9 -55 -36 0 -24 -4 -29 -24 -29 -19 0 -25 -6 -28 -27 -2 -23 -8 -29 -35
-31 -27 -3 -33 -8 -33 -27 0 -18 -6 -24 -27 -27 -22 -2 -29 -9 -31 -30 -3 -22
-9 -28 -27 -28 -18 0 -24 -6 -27 -27 -2 -22 -9 -29 -30 -31 -21 -3 -27 -9 -30
-30 -2 -21 -9 -28 -30 -30 -22 -3 -28 -9 -28 -28 0 -20 -5 -24 -30 -24 -26 0
-30 -3 -30 -29 0 -27 -3 -29 -54 -35 -50 -7 -55 -10 -58 -34 -2 -21 -9 -28
-31 -30 -21 -3 -27 -9 -27 -28 0 -20 -5 -24 -30 -24 -27 0 -30 -3 -30 -30 0
-27 -3 -30 -30 -30 -27 0 -30 -3 -30 -30 0 -27 -3 -30 -30 -30 -25 0 -30 -4
-30 -24 0 -19 -6 -25 -28 -28 -21 -2 -28 -9 -30 -30 -3 -21 -9 -27 -30 -30
-21 -2 -28 -9 -30 -30 -3 -21 -9 -27 -30 -30 -21 -2 -28 -9 -30 -30 -3 -27 -6
-28 -58 -28 -53 0 -54 0 -54 -30 0 -25 -4 -30 -24 -30 -19 0 -25 -6 -28 -27
-2 -23 -8 -29 -36 -31 -28 -3 -32 -7 -32 -33 0 -26 -3 -29 -30 -29 -25 0 -30
-4 -30 -25 0 -20 -5 -25 -25 -25 -21 0 -25 -5 -25 -30 0 -27 -3 -30 -30 -30
-27 0 -30 -3 -30 -30 0 -27 -3 -30 -29 -30 -25 0 -30 -4 -33 -27 -2 -22 -9
-29 -30 -31 -22 -3 -28 -9 -28 -27 0 -21 -6 -24 -55 -30 -52 -7 -55 -9 -55
-36 0 -25 -4 -29 -29 -29 -25 0 -30 -4 -33 -27 -2 -22 -9 -29 -30 -31 -22 -3
-28 -9 -28 -28 0 -20 -5 -24 -30 -24 -27 0 -30 -3 -30 -30 0 -27 -3 -30 -30
-30 -27 0 -30 -3 -30 -30 0 -27 -3 -30 -30 -30 -27 0 -30 -3 -30 -30 0 -27 -3
-30 -30 -30 -25 0 -30 -4 -30 -24 0 -19 -6 -25 -28 -28 -21 -2 -28 -9 -30 -30
-3 -24 -8 -27 -58 -34 -51 -6 -54 -8 -54 -35 0 -24 -4 -29 -25 -29 -20 0 -25
-5 -25 -25 0 -22 -4 -25 -35 -25 -32 0 -35 -2 -35 -30 0 -27 -3 -30 -30 -30
-27 0 -30 -3 -30 -30 0 -25 -4 -30 -25 -30 -20 0 -25 -5 -25 -25 0 -21 -5 -25
-30 -25 -27 0 -30 -3 -30 -30 0 -27 -3 -30 -30 -30 -27 0 -30 -3 -30 -30 0
-27 -3 -30 -30 -30 -27 0 -30 -3 -30 -30 0 -30 -1 -30 -55 -30 -54 0 -55 0
-55 -30 0 -27 -3 -30 -30 -30 -27 0 -30 -3 -30 -30 0 -27 -3 -30 -29 -30 -25
0 -30 -4 -33 -27 -2 -22 -9 -29 -31 -31 -21 -3 -27 -9 -27 -28 0 -20 -5 -24
-30 -24 -27 0 -30 -3 -30 -30 0 -27 -3 -30 -30 -30 -27 0 -30 -3 -30 -30 0
-27 -3 -30 -30 -30 -27 0 -30 -3 -30 -30 0 -27 -3 -30 -30 -30 -25 0 -30 -4
-30 -24 0 -22 -5 -25 -55 -31 -52 -7 -55 -9 -55 -36 0 -24 -4 -29 -24 -29 -19
0 -25 -6 -28 -27 -2 -23 -8 -29 -35 -31 -27 -3 -33 -8 -33 -27 0 -18 -6 -24
-28 -27 -21 -2 -28 -9 -30 -30 -3 -22 -9 -28 -27 -28 -18 0 -24 -6 -27 -27 -2
-22 -9 -29 -30 -31 -21 -3 -27 -9 -30 -30 -2 -21 -9 -28 -31 -30 -21 -3 -27
-9 -27 -28 0 -20 -5 -24 -30 -24 -26 0 -30 -3 -30 -29 0 -27 -3 -29 -54 -35
-50 -7 -55 -10 -58 -34 -2 -21 -9 -28 -30 -30 -22 -3 -28 -9 -28 -28 0 -20 -5
-24 -30 -24 -27 0 -30 -3 -30 -30 0 -27 -3 -30 -30 -30 -27 0 -30 -3 -30 -30
0 -27 -3 -30 -30 -30 -25 0 -30 -4 -30 -24 0 -19 -6 -25 -27 -28 -22 -2 -29
-9 -31 -30 -3 -21 -9 -27 -30 -30 -21 -2 -28 -9 -30 -30 -3 -21 -9 -27 -30
-30 -21 -2 -28 -9 -30 -30 -3 -27 -6 -28 -58 -28 -53 0 -54 0 -54 -30 0 -25
-4 -30 -24 -30 -19 0 -25 -6 -28 -27 -2 -22 -9 -29 -30 -31 -21 -3 -27 -9 -30
-30 -2 -21 -9 -28 -31 -30 -21 -3 -27 -9 -27 -28 0 -20 -5 -24 -30 -24 -27 0
-30 -3 -30 -30 0 -27 -3 -30 -30 -30 -27 0 -30 -3 -30 -30 0 -27 -3 -30 -30
-30 -27 0 -30 -3 -30 -30 0 -27 -3 -30 -30 -30 -25 0 -30 -4 -30 -24 0 -22 -5
-25 -55 -31 -52 -7 -55 -9 -55 -36 0 -25 -4 -29 -29 -29 -25 0 -30 -4 -33 -27
-2 -22 -9 -29 -31 -31 -21 -3 -27 -9 -27 -28 0 -20 -5 -24 -30 -24 -27 0 -30
-3 -30 -30 0 -27 -3 -30 -30 -30 -27 0 -30 -3 -30 -30 0 -27 -3 -30 -30 -30
-27 0 -30 -3 -30 -30 0 -27 -3 -30 -30 -30 -25 0 -30 -4 -30 -24 0 -19 -6 -25
-27 -28 -22 -2 -29 -9 -31 -30 -3 -24 -8 -27 -58 -34 -51 -6 -54 -8 -54 -35 0
-24 -4 -29 -25 -29 -20 0 -25 -5 -25 -25 0 -21 -5 -25 -30 -25 -27 0 -30 -3
-30 -30 0 -27 -3 -30 -29 -30 -25 0 -30 -4 -33 -27 -2 -22 -9 -29 -30 -31 -22
-3 -28 -9 -28 -28 0 -20 -5 -24 -30 -24 -27 0 -30 -3 -30 -30 0 -27 -3 -30
-30 -30 -27 0 -30 -3 -30 -30 0 -27 -3 -30 -30 -30 -27 0 -30 -3 -30 -30 0
-30 -1 -30 -55 -30 -54 0 -55 0 -55 -30 0 -27 -3 -30 -30 -30 -27 0 -30 -3
-30 -30 0 -27 -3 -30 -29 -30 -25 0 -30 -4 -33 -27 -2 -22 -9 -29 -31 -31 -21
-3 -27 -9 -27 -28 0 -20 -5 -24 -30 -24 -27 0 -30 -3 -30 -30 0 -27 -3 -30
-30 -30 -27 0 -30 -3 -30 -30 0 -27 -3 -30 -30 -30 -27 0 -30 -3 -30 -30 0
-27 -3 -30 -30 -30 -25 0 -30 -4 -30 -24 0 -22 -5 -25 -55 -31 -52 -7 -55 -9
-55 -36 0 -24 -4 -29 -24 -29 -19 0 -25 -6 -28 -27 -2 -22 -9 -29 -31 -31 -21
-3 -27 -9 -27 -28 0 -20 -5 -24 -30 -24 -27 0 -30 -3 -30 -30 0 -27 -3 -30
-30 -30 -27 0 -30 -3 -30 -30 0 -27 -3 -30 -29 -30 -25 0 -30 -4 -33 -27 -2
-22 -9 -29 -31 -31 -21 -3 -27 -9 -27 -28 0 -20 -5 -24 -30 -24 -26 0 -30 -3
-30 -29 0 -27 -3 -29 -54 -35 -50 -7 -55 -10 -58 -34 -2 -21 -9 -28 -31 -30
-21 -3 -27 -9 -27 -28 0 -20 -5 -24 -30 -24 -27 0 -30 -3 -30 -30 0 -27 -3
-30 -30 -30 -27 0 -30 -3 -30 -30 0 -27 -3 -30 -30 -30 -25 0 -30 -4 -30 -24
0 -19 -6 -25 -28 -28 -21 -2 -28 -9 -30 -30 -3 -21 -9 -27 -30 -30 -21 -2 -28
-9 -30 -30 -3 -21 -9 -27 -30 -30 -21 -2 -28 -9 -30 -30 -3 -27 -6 -28 -58
-28 -53 0 -54 0 -54 -30 0 -25 -4 -30 -24 -30 -19 0 -25 -6 -28 -27 -2 -23 -8
-29 -35 -31 -29 -3 -33 -7 -33 -33 0 -24 -4 -29 -25 -29 -20 0 -25 -5 -25 -25
0 -21 -5 -25 -30 -25 -27 0 -30 -3 -30 -30 0 -27 -3 -30 -30 -30 -27 0 -30 -3
-30 -30 0 -27 -3 -30 -30 -30 -27 0 -30 -3 -30 -30 0 -27 -3 -30 -30 -30 -25
0 -30 -4 -30 -24 0 -22 -5 -25 -55 -31 -52 -7 -55 -9 -55 -36 0 -26 -4 -29
-30 -29 -27 0 -30 -3 -30 -30 0 -27 -3 -30 -30 -30 -25 0 -30 -4 -30 -25 0
-21 -5 -25 -30 -25 -27 0 -30 -3 -30 -30 0 -27 -3 -30 -30 -30 -27 0 -30 -3
-30 -30 0 -27 -3 -30 -30 -30 -27 0 -30 -3 -30 -30 0 -27 -3 -30 -30 -30 -25
0 -30 -4 -30 -24 0 -19 -6 -25 -27 -28 -22 -2 -29 -9 -31 -30 -3 -24 -8 -27
-58 -34 -51 -6 -54 -8 -54 -35 0 -24 -4 -29 -25 -29 -20 0 -25 -5 -25 -25 0
-22 -4 -25 -35 -25 -32 0 -35 -2 -35 -30 0 -25 -4 -30 -24 -30 -19 0 -25 -6
-28 -27 -2 -22 -9 -29 -31 -31 -21 -3 -27 -9 -27 -28 0 -20 -5 -24 -30 -24
-27 0 -30 -3 -30 -30 0 -27 -3 -30 -30 -30 -27 0 -30 -3 -30 -30 0 -27 -3 -30
-30 -30 -27 0 -30 -3 -30 -30 0 -30 -1 -30 -55 -30 -54 0 -55 0 -55 -30 0 -27
-3 -30 -30 -30 -27 0 -30 -3 -30 -30 0 -27 -3 -30 -30 -30 -27 0 -30 -3 -30
-30 0 -27 -3 -30 -30 -30 -25 0 -30 -4 -30 -25 0 -21 -5 -25 -30 -25 -27 0
-30 -3 -30 -30 0 -27 -3 -30 -30 -30 -27 0 -30 -3 -30 -30 0 -27 -3 -30 -30
-30 -25 0 -30 -4 -30 -24 0 -19 -6 -25 -28 -28 -21 -2 -28 -9 -30 -30 -3 -24
-8 -27 -58 -34 -51 -6 -54 -8 -54 -35 l0 -28 3633 0 c1997 0 3676 2 3729 5 95
6 97 7 100 33 2 20 9 27 30 29 21 3 27 9 30 30 2 21 9 28 31 30 21 3 27 9 27
28 0 20 5 24 30 24 27 0 30 3 30 30 0 27 3 30 30 30 27 0 30 3 30 30 0 27 3
30 30 30 25 0 30 4 30 24 0 19 6 25 28 28 21 2 28 9 30 30 3 21 9 27 30 30 21
2 28 9 30 30 3 24 8 27 57 33 49 7 54 10 57 34 2 18 10 27 25 29 14 2 23 11
25 25 2 17 11 23 35 25 29 3 33 7 33 33 0 26 3 29 30 29 27 0 30 3 30 30 0 27
3 30 30 30 25 0 30 4 30 25 0 20 5 25 25 25 21 0 25 5 25 30 0 27 3 30 30 30
27 0 30 3 30 30 0 27 3 30 30 30 27 0 30 3 30 30 0 30 1 30 55 30 54 0 55 0
55 30 0 27 3 30 30 30 27 0 30 3 30 30 0 27 3 30 30 30 27 0 30 3 30 30 0 27
3 30 30 30 25 0 30 4 30 25 0 21 5 25 30 25 27 0 30 3 30 30 0 27 3 30 30 30
27 0 30 3 30 30 0 27 3 30 30 30 25 0 30 4 30 24 0 22 5 25 55 31 52 7 55 9
55 36 0 26 4 29 30 29 27 0 30 3 30 30 0 27 3 30 30 30 25 0 30 4 30 25 0 21
5 25 30 25 27 0 30 3 30 30 0 27 3 30 30 30 27 0 30 3 30 30 0 27 3 30 30 30
27 0 30 3 30 30 0 27 3 30 30 30 25 0 30 4 30 25 0 20 5 25 25 25 21 0 25 5
25 29 0 27 3 29 54 35 50 7 55 10 58 34 2 21 9 28 31 30 21 3 27 9 27 28 0 20
5 24 30 24 27 0 30 3 30 30 0 27 3 30 30 30 27 0 30 3 30 30 0 27 3 30 30 30
25 0 30 4 30 24 0 19 6 25 28 28 21 2 28 9 30 31 3 23 8 27 33 27 26 0 29 3
29 30 0 27 3 30 30 30 26 0 30 3 30 29 0 27 3 29 55 36 50 6 55 9 55 31 0 20
5 24 30 24 27 0 30 3 30 30 0 27 3 30 30 30 27 0 30 3 30 30 0 27 3 30 30 30
25 0 30 4 30 24 0 19 6 25 28 28 21 2 28 9 30 30 3 21 9 27 30 30 21 2 28 9
30 30 3 21 9 27 30 30 21 2 28 9 30 31 3 25 6 27 52 27 46 0 49 2 52 28 2 21
9 28 30 30 21 3 27 9 30 30 2 21 9 28 31 30 21 3 27 9 27 28 0 20 5 24 30 24
27 0 30 3 30 30 0 27 3 30 30 30 27 0 30 3 30 30 0 27 3 30 30 30 27 0 30 3
30 30 0 27 3 30 30 30 25 0 30 4 30 24 0 19 6 25 28 28 21 2 28 9 30 30 3 24
8 27 58 34 51 6 54 8 54 35 0 26 4 29 30 29 25 0 30 4 30 25 0 21 5 25 30 25
27 0 30 3 30 30 0 27 3 30 30 30 27 0 30 3 30 30 0 27 3 30 30 30 27 0 30 3
30 30 0 27 3 30 30 30 25 0 30 4 30 24 0 19 6 25 28 28 21 2 28 9 30 30 3 21
9 27 30 30 21 2 28 9 30 30 3 23 9 27 53 33 43 6 49 10 49 31 0 20 5 24 29 24
25 0 30 4 33 28 2 22 8 28 36 30 28 3 32 7 32 33 0 26 3 29 30 29 25 0 30 4
30 25 0 20 5 25 25 25 21 0 25 5 25 30 0 27 3 30 30 30 27 0 30 3 30 30 0 27
3 30 30 30 27 0 30 3 30 30 0 30 1 30 55 30 54 0 55 0 55 30 0 27 3 30 30 30
27 0 30 3 30 30 0 27 3 30 29 30 25 0 30 4 33 28 2 21 9 28 31 30 21 3 27 9
27 28 0 20 5 24 30 24 27 0 30 3 30 30 0 27 3 30 30 30 27 0 30 3 30 30 0 27
3 30 30 30 27 0 30 3 30 30 0 27 3 30 30 30 25 0 30 4 30 24 0 22 5 25 55 31
52 7 55 9 55 36 0 24 4 29 24 29 19 0 25 6 28 28 2 22 8 28 36 30 26 3 32 8
32 27 0 18 6 24 28 27 21 2 28 9 30 31 3 23 8 27 33 27 26 0 29 3 29 30 0 25
4 30 24 30 19 0 25 6 28 28 2 21 9 28 31 30 21 3 27 9 27 28 0 20 5 24 30 24
26 0 30 3 30 29 0 27 3 29 54 35 50 7 55 10 58 34 2 21 9 28 31 30 21 3 27 9
27 28 0 20 5 24 30 24 27 0 30 3 30 30 0 27 3 30 30 30 27 0 30 3 30 30 0 27
3 30 30 30 25 0 30 4 30 24 0 19 6 25 28 28 21 2 28 9 30 30 3 21 9 27 30 30
21 2 28 9 30 30 3 24 8 27 58 34 48 6 54 9 54 30 0 20 5 24 30 24 27 0 30 3
30 30 0 27 3 30 30 30 27 0 30 3 30 30 0 27 3 30 30 30 27 0 30 3 30 30 0 27
3 30 30 30 25 0 30 4 30 25 0 20 5 25 25 25 21 0 25 5 25 29 0 26 4 30 33 33
27 2 33 8 35 31 3 21 9 27 28 27 20 0 24 5 24 30 0 30 1 30 55 30 54 0 55 0
55 30 0 27 3 30 29 30 25 0 30 4 33 28 2 21 9 28 30 30 21 3 27 9 30 30 2 21
9 28 31 30 21 3 27 9 27 28 0 20 5 24 30 24 27 0 30 3 30 30 0 27 3 30 30 30
27 0 30 3 30 30 0 27 3 30 30 30 25 0 30 4 30 24 0 19 6 25 28 28 21 2 28 9
30 30 3 24 8 27 58 34 51 6 54 8 54 35 0 26 4 29 30 29 25 0 30 4 30 25 0 21
5 25 30 25 27 0 30 3 30 30 0 27 3 30 30 30 27 0 30 3 30 30 0 27 3 30 30 30
27 0 30 3 30 30 0 25 4 30 25 30 20 0 25 5 25 24 0 21 6 25 33 28 27 2 33 8
35 31 3 21 9 27 28 27 20 0 24 5 24 29 0 27 3 29 55 36 50 6 55 9 55 31 0 20
5 24 30 24 27 0 30 3 30 30 0 27 3 30 30 30 27 0 30 3 30 30 0 27 3 30 29 30
25 0 30 4 33 28 2 21 9 28 31 30 21 3 27 9 27 28 0 20 5 24 30 24 27 0 30 3
30 30 0 27 3 30 30 30 27 0 30 3 30 30 0 30 1 30 55 30 54 0 55 0 55 30 0 27
3 30 30 30 27 0 30 3 30 30 0 27 3 30 30 30 27 0 30 3 30 30 0 27 3 30 30 30
25 0 30 4 30 24 0 19 6 25 28 28 21 2 28 9 30 30 3 21 9 27 30 30 21 2 28 9
30 31 3 23 8 27 33 27 26 0 29 3 29 30 0 25 4 30 25 30 20 0 25 5 25 24 0 21
6 24 54 30 50 7 55 10 58 34 2 21 9 28 30 30 21 3 27 9 30 30 2 21 9 28 31 30
21 3 27 9 27 28 0 20 5 24 30 24 27 0 30 3 30 30 0 27 3 30 30 30 27 0 30 3
30 30 0 27 3 30 30 30 25 0 30 4 30 24 0 19 6 25 28 28 21 2 28 9 30 30 3 24
8 27 57 33 49 7 54 10 57 34 2 20 9 27 30 29 21 3 27 9 30 30 2 21 9 28 31 30
21 3 27 9 27 28 0 20 5 24 30 24 27 0 30 3 30 30 0 27 3 30 30 30 27 0 30 3
30 30 0 27 3 30 30 30 25 0 30 4 30 24 0 19 6 25 28 28 21 2 28 9 30 30 3 21
9 27 30 30 21 2 28 9 30 30 3 24 8 27 58 34 48 6 54 9 54 30 0 19 5 24 25 24
21 0 25 5 25 30 0 27 3 30 29 30 25 0 30 4 33 28 2 21 9 28 30 30 21 3 27 9
30 30 2 21 9 28 31 30 21 3 27 9 27 28 0 20 5 24 30 24 27 0 30 3 30 30 0 27
3 30 30 30 27 0 30 3 30 30 0 27 3 30 30 30 27 0 30 3 30 30 0 30 1 30 55 30
54 0 55 0 55 30 0 27 3 30 30 30 27 0 30 3 30 30 0 27 3 30 30 30 25 0 30 4
30 25 0 21 5 25 30 25 27 0 30 3 30 30 0 27 3 30 30 30 27 0 30 3 30 30 0 27
3 30 30 30 27 0 30 3 30 30 0 27 3 30 30 30 25 0 30 4 30 24 0 19 6 25 28 28
21 2 28 9 30 30 3 24 8 27 58 34 51 6 54 8 54 35 0 24 4 29 25 29 20 0 25 5
25 24 0 21 6 25 33 28 27 2 33 8 35 31 3 23 8 27 33 27 26 0 29 3 29 30 0 25
4 30 24 30 19 0 25 6 28 28 2 21 9 28 31 30 21 3 27 9 27 28 0 20 5 24 30 24
26 0 30 3 30 29 0 27 3 29 54 35 50 7 55 10 58 34 2 21 9 28 31 30 21 3 27 9
27 28 0 20 5 24 30 24 27 0 30 3 30 30 0 27 3 30 30 30 27 0 30 3 30 30 0 27
3 30 30 30 25 0 30 4 30 24 0 19 6 25 28 28 21 2 28 9 30 30 3 21 9 27 30 30
21 2 28 9 30 31 3 23 8 27 33 27 26 0 29 3 29 30 0 30 1 30 55 30 54 0 55 0
55 30 0 27 3 30 30 30 27 0 30 3 30 30 0 27 3 30 30 30 27 0 30 3 30 30 0 27
3 30 30 30 25 0 30 4 30 24 0 19 6 25 28 28 21 2 28 9 30 31 3 21 9 27 28 27
20 0 24 5 24 30 0 27 3 30 29 30 25 0 30 4 33 28 2 21 9 28 31 30 21 3 27 9
27 27 0 21 6 24 54 30 50 7 55 10 58 34 2 20 9 27 30 29 21 3 27 9 30 30 2 21
9 28 31 30 21 3 27 9 27 28 0 20 5 24 30 24 27 0 30 3 30 30 0 27 3 30 30 30
27 0 30 3 30 30 0 27 3 30 30 30 25 0 30 4 30 24 0 19 6 25 28 28 21 2 28 9
30 30 3 24 8 27 58 34 51 6 54 8 54 35 0 26 4 29 30 29 25 0 30 4 30 25 0 21
5 25 30 25 27 0 30 3 30 30 0 27 3 30 30 30 27 0 30 3 30 30 0 27 3 30 30 30
27 0 30 3 30 30 0 27 3 30 30 30 25 0 30 4 30 24 0 19 6 25 28 28 21 2 28 9
30 31 3 21 9 27 28 27 20 0 24 5 24 29 0 27 3 29 55 36 50 6 55 9 55 31 0 20
5 24 30 24 27 0 30 3 30 30 0 27 3 30 29 30 25 0 30 4 33 28 2 21 9 28 31 30
21 3 27 9 27 28 0 20 5 24 30 24 27 0 30 3 30 30 0 27 3 30 30 30 27 0 30 3
30 30 0 27 3 30 30 30 27 0 30 3 30 30 0 30 1 30 55 30 54 0 55 0 55 30 0 27
3 30 30 30 27 0 30 3 30 30 0 27 3 30 29 30 25 0 30 4 33 28 2 21 9 28 31 30
21 3 27 9 27 27 0 18 6 24 28 27 21 2 28 9 30 31 3 23 8 27 33 27 26 0 29 3
29 30 0 27 3 30 30 30 27 0 30 3 30 30 0 27 3 30 30 30 25 0 30 4 30 24 0 22
5 25 55 31 52 7 55 9 55 36 0 24 4 29 24 29 19 0 25 6 28 28 2 21 9 28 31 30
21 3 27 9 27 28 0 20 5 24 30 24 27 0 30 3 30 30 0 27 3 30 29 30 25 0 30 4
33 28 2 21 9 28 30 30 21 3 27 9 30 30 2 21 9 28 31 30 21 3 27 9 27 28 0 20
5 24 30 24 26 0 30 3 30 29 0 27 3 29 55 36 50 6 55 9 55 31 0 20 5 24 30 24
27 0 30 3 30 30 0 27 3 30 30 30 27 0 30 3 30 30 0 27 3 30 30 30 27 0 30 3
30 30 0 27 3 30 30 30 25 0 30 4 30 24 0 19 6 25 28 28 21 2 28 9 30 30 3 21
9 27 30 30 21 2 28 9 30 30 3 21 9 27 30 30 21 2 28 9 30 31 3 26 6 27 58 27
53 0 54 0 54 30 0 27 3 30 30 30 27 0 30 3 30 30 0 27 3 30 30 30 25 0 30 4
30 24 0 19 6 25 28 28 21 2 28 9 30 31 3 21 9 27 28 27 20 0 24 5 24 30 0 27
3 30 30 30 27 0 30 3 30 30 0 27 3 30 30 30 27 0 30 3 30 30 0 30 1 30 55 30
54 0 55 0 55 30 0 27 3 30 29 30 25 0 30 4 33 28 2 21 9 28 31 30 21 3 27 9
27 28 0 20 5 24 30 24 27 0 30 3 30 30 0 27 3 30 30 30 27 0 30 3 30 30 0 27
3 30 30 30 27 0 30 3 30 30 0 27 3 30 30 30 25 0 30 4 30 24 0 19 6 25 28 28
21 2 28 9 30 30 3 24 8 27 58 34 51 6 54 8 54 35 0 26 4 29 30 29 25 0 30 4
30 25 0 21 5 25 30 25 27 0 30 3 30 30 0 27 3 30 30 30 27 0 30 3 30 30 0 27
3 30 30 30 27 0 30 3 30 30 0 27 3 30 30 30 25 0 30 4 30 25 0 20 5 25 25 25
21 0 25 5 25 29 0 27 3 29 54 35 50 7 55 10 58 34 2 21 9 28 31 30 21 3 27 9
27 28 0 20 5 24 29 24 25 0 30 4 33 28 2 21 9 28 30 30 21 3 27 9 30 30 2 21
9 28 31 30 21 3 27 9 27 28 0 20 5 24 30 24 27 0 30 3 30 30 0 27 3 30 30 30
27 0 30 3 30 30 0 27 3 30 30 30 27 0 30 3 30 30 0 30 1 30 55 30 54 0 55 0
55 30 0 27 3 30 30 30 27 0 30 3 30 30 0 27 3 30 30 30 27 0 30 3 30 30 0 27
3 30 30 30 25 0 30 4 30 24 0 19 6 25 28 28 21 2 28 9 30 30 3 21 9 27 30 30
21 2 28 9 30 31 3 23 8 27 33 27 24 0 29 4 29 25 0 20 5 25 25 25 21 0 25 5
25 29 0 27 3 29 54 35 50 7 55 10 58 34 2 21 9 28 31 30 21 3 27 9 27 28 0 20
5 24 30 24 27 0 30 3 30 30 0 27 3 30 30 30 27 0 30 3 30 30 0 27 3 30 30 30
27 0 30 3 30 30 0 27 3 30 30 30 25 0 30 4 30 24 0 19 6 25 28 28 21 2 28 9
30 30 3 24 8 27 57 33 49 7 54 10 57 34 2 20 9 27 31 29 21 3 27 9 27 28 0 20
5 24 30 24 27 0 30 3 30 30 0 27 3 30 30 30 27 0 30 3 30 30 0 27 3 30 30 30
25 0 30 4 30 24 0 19 6 25 28 28 21 2 28 9 30 30 3 21 9 27 30 30 21 2 28 9
30 30 3 21 9 27 30 30 21 2 28 9 30 30 3 24 8 27 58 34 48 6 54 9 54 30 0 19
5 24 24 24 19 0 25 6 28 28 2 21 9 28 30 30 21 3 27 9 30 30 2 21 9 28 31 30
21 3 27 9 27 28 0 20 5 24 30 24 27 0 30 3 30 30 0 27 3 30 30 30 27 0 30 3
30 30 0 27 3 30 30 30 27 0 30 3 30 30 0 30 1 30 55 30 54 0 55 0 55 30 0 27
3 30 30 30 27 0 30 3 30 30 l0 31 63 -3 c59 -3 62 -4 65 -30 3 -22 9 -28 28
-28 20 0 24 -5 24 -30 0 -30 1 -30 55 -30 54 0 55 0 55 -30 0 -27 3 -30 29
-30 25 0 30 -4 33 -27 2 -22 9 -29 30 -31 21 -3 27 -9 30 -30 2 -21 9 -28 31
-30 21 -3 27 -9 27 -28 0 -20 5 -24 30 -24 27 0 30 -3 30 -30 0 -27 3 -30 30
-30 27 0 30 -3 30 -30 0 -27 3 -30 30 -30 25 0 30 -4 30 -24 0 -22 5 -25 55
-31 52 -7 55 -9 55 -36 0 -26 4 -29 30 -29 27 0 30 -3 30 -30 0 -27 3 -30 30
-30 27 0 30 -3 30 -30 0 -27 3 -30 30 -30 25 0 30 -4 30 -24 0 -19 6 -25 28
-28 21 -2 28 -9 30 -30 3 -24 8 -28 33 -28 26 0 29 -3 29 -30 0 -27 3 -30 30
-30 25 0 30 -4 30 -24 0 -19 6 -25 28 -28 21 -2 28 -9 30 -30 3 -24 8 -27 58
-34 51 -6 54 -8 54 -35 0 -26 4 -29 30 -29 25 0 30 -4 30 -25 0 -20 5 -25 25
-25 21 0 25 -5 25 -30 0 -27 3 -30 30 -30 27 0 30 -3 30 -30 0 -27 3 -30 30
-30 27 0 30 -3 30 -30 0 -27 3 -30 30 -30 25 0 30 -4 30 -25 0 -21 5 -25 30
-25 27 0 30 -3 30 -30 0 -27 3 -30 30 -30 26 0 30 -3 30 -29 0 -27 3 -29 55
-36 50 -6 55 -9 55 -31 0 -20 5 -24 30 -24 27 0 30 -3 30 -30 0 -27 3 -30 30
-30 27 0 30 -3 30 -30 0 -27 3 -30 30 -30 25 0 30 -4 30 -24 0 -19 6 -25 28
-28 21 -2 28 -9 30 -30 3 -24 8 -28 33 -28 26 0 29 -3 29 -30 0 -27 3 -30 30
-30 27 0 30 -3 30 -30 0 -30 1 -30 55 -30 54 0 55 0 55 -30 0 -25 4 -30 24
-30 19 0 25 -6 28 -27 2 -23 8 -29 36 -31 28 -3 32 -7 32 -33 0 -24 4 -29 25
-29 20 0 25 -5 25 -25 0 -21 5 -25 30 -25 27 0 30 -3 30 -30 0 -27 3 -30 30
-30 27 0 30 -3 30 -30 0 -27 3 -30 30 -30 25 0 30 -4 30 -24 0 -19 6 -25 28
-28 21 -2 28 -9 30 -29 3 -24 8 -27 57 -34 49 -6 54 -9 57 -33 2 -21 9 -28 31
-30 21 -3 27 -9 27 -28 0 -20 5 -24 30 -24 27 0 30 -3 30 -30 0 -27 3 -30 30
-30 27 0 30 -3 30 -30 0 -27 3 -30 30 -30 27 0 30 -3 30 -30 0 -27 3 -30 30
-30 25 0 30 -4 30 -24 0 -19 6 -25 28 -28 21 -2 28 -9 30 -30 3 -24 8 -27 57
-33 49 -7 54 -10 57 -34 2 -20 9 -27 31 -29 21 -3 27 -9 27 -27 0 -18 6 -24
28 -27 21 -2 28 -9 30 -30 3 -21 9 -27 30 -30 21 -2 28 -9 30 -30 3 -22 9 -28
27 -28 18 0 24 -6 27 -27 2 -22 9 -29 31 -31 21 -3 27 -9 27 -28 0 -20 5 -24
30 -24 27 0 30 -3 30 -30 0 -27 3 -30 30 -30 27 0 30 -3 30 -30 0 -30 1 -30
55 -30 54 0 55 0 55 -30 0 -27 3 -30 30 -30 27 0 30 -3 30 -30 0 -27 3 -30 30
-30 27 0 30 -3 30 -30 0 -27 3 -30 30 -30 25 0 30 -4 30 -25 0 -21 5 -25 30
-25 27 0 30 -3 30 -30 0 -27 3 -30 30 -30 27 0 30 -3 30 -30 0 -27 3 -30 30
-30 27 0 30 -3 30 -30 0 -30 1 -30 55 -30 54 0 55 0 55 -30 0 -27 3 -30 30
-30 27 0 30 -3 30 -30 0 -27 3 -30 30 -30 27 0 30 -3 30 -30 0 -27 3 -30 30
-30 25 0 30 -4 30 -24 0 -19 6 -25 28 -28 21 -2 28 -9 30 -30 3 -22 9 -28 28
-28 20 0 24 -5 24 -29 0 -26 4 -30 33 -33 27 -2 33 -8 35 -30 3 -24 8 -28 33
-28 24 0 29 -4 29 -24 0 -21 6 -25 49 -31 44 -6 50 -10 53 -33 2 -21 9 -28 31
-30 21 -3 27 -9 27 -28 0 -20 5 -24 30 -24 27 0 30 -3 30 -30 0 -27 3 -30 30
-30 27 0 30 -3 30 -30 0 -27 3 -30 30 -30 27 0 30 -3 30 -30 0 -27 3 -30 30
-30 25 0 30 -4 30 -25 0 -21 5 -25 30 -25 27 0 30 -3 30 -30 0 -27 3 -30 30
-30 26 0 30 -3 30 -29 0 -27 3 -29 55 -36 50 -6 55 -9 55 -31 0 -20 5 -24 30
-24 27 0 30 -3 30 -30 0 -27 3 -30 30 -30 27 0 30 -3 30 -30 0 -27 3 -30 30
-30 27 0 30 -3 30 -30 0 -27 3 -30 30 -30 25 0 30 -4 30 -24 0 -19 6 -25 28
-28 21 -2 28 -9 30 -30 3 -21 9 -27 30 -30 21 -2 28 -9 30 -30 3 -25 7 -27 55
-30 48 -3 52 -5 55 -30 3 -22 9 -28 27 -28 18 0 24 -6 27 -27 2 -22 9 -29 30
-31 21 -3 27 -9 30 -30 2 -21 9 -28 30 -30 21 -3 27 -9 30 -30 2 -21 9 -28 31
-30 21 -3 27 -9 27 -28 0 -20 5 -24 30 -24 27 0 30 -3 30 -30 0 -27 3 -30 30
-30 27 0 30 -3 30 -30 0 -27 3 -30 30 -30 25 0 30 -4 30 -24 0 -22 5 -25 54
-31 50 -7 55 -10 58 -34 2 -20 9 -27 30 -29 21 -3 27 -9 30 -30 2 -21 9 -28
31 -30 21 -3 27 -9 27 -27 0 -18 6 -24 28 -27 21 -2 28 -9 30 -30 3 -24 8 -28
33 -28 26 0 29 -3 29 -30 0 -27 3 -30 30 -30 27 0 30 -3 30 -30 0 -27 3 -30
30 -30 25 0 30 -4 30 -24 0 -19 6 -25 28 -28 21 -2 28 -9 30 -30 3 -24 8 -27
58 -34 51 -6 54 -8 54 -35 0 -24 4 -29 25 -29 20 0 25 -5 25 -25 0 -21 5 -25
30 -25 27 0 30 -3 30 -30 0 -27 3 -30 29 -30 25 0 30 -4 33 -27 2 -22 9 -29
31 -31 21 -3 27 -9 27 -27 0 -19 6 -24 33 -27 27 -2 33 -8 35 -30 3 -22 9 -28
28 -28 20 0 24 -5 24 -29 0 -27 3 -29 55 -36 50 -6 55 -9 55 -31 0 -20 5 -24
30 -24 27 0 30 -3 30 -30 0 -27 3 -30 30 -30 27 0 30 -3 30 -30 0 -27 3 -30
30 -30 27 0 30 -3 30 -30 0 -27 3 -30 30 -30 25 0 30 -4 30 -24 0 -19 6 -25
28 -28 21 -2 28 -9 30 -30 3 -24 8 -28 33 -28 26 0 29 -3 29 -30 0 -27 3 -30
30 -30 27 0 30 -3 30 -30 0 -30 1 -30 55 -30 54 0 55 0 55 -30 0 -27 3 -30 30
-30 27 0 30 -3 30 -30 0 -27 3 -30 30 -30 27 0 30 -3 30 -30 0 -25 4 -30 25
-30 20 0 25 -5 25 -24 0 -21 6 -25 33 -28 26 -2 33 -8 35 -30 3 -21 9 -27 30
-30 21 -2 28 -9 30 -30 3 -24 8 -28 33 -28 24 0 29 -4 29 -25 0 -20 5 -25 25
-25 21 0 25 -5 25 -29 0 -27 3 -29 54 -35 50 -7 55 -10 58 -34 2 -21 9 -28 31
-30 21 -3 27 -9 27 -28 0 -20 5 -24 30 -24 27 0 30 -3 30 -30 0 -27 3 -30 30
-30 27 0 30 -3 30 -30 0 -27 3 -30 30 -30 27 0 30 -3 30 -30 0 -27 3 -30 30
-30 25 0 30 -4 30 -25 0 -21 5 -25 30 -25 26 0 30 -3 30 -29 0 -27 3 -29 54
-35 50 -7 55 -10 58 -34 2 -21 9 -28 31 -30 21 -3 27 -9 27 -28 0 -20 5 -24
30 -24 27 0 30 -3 30 -30 0 -27 3 -30 30 -30 27 0 30 -3 30 -30 0 -27 3 -30
30 -30 27 0 30 -3 30 -30 0 -27 3 -30 30 -30 25 0 30 -4 30 -24 0 -19 6 -25
28 -28 21 -2 28 -9 30 -30 3 -21 9 -27 30 -30 21 -2 28 -9 30 -30 3 -22 9 -28
28 -28 20 0 24 -5 24 -30 0 -30 1 -30 55 -30 54 0 55 0 55 -30 0 -27 3 -30 29
-30 25 0 30 -4 33 -27 2 -22 9 -29 31 -31 21 -3 27 -9 27 -28 0 -20 5 -24 30
-24 27 0 30 -3 30 -30 0 -27 3 -30 30 -30 27 0 30 -3 30 -30 0 -27 3 -30 30
-30 27 0 30 -3 30 -30 0 -27 3 -30 30 -30 25 0 30 -4 30 -24 0 -22 5 -25 55
-31 52 -7 55 -9 55 -36 0 -26 4 -29 30 -29 27 0 30 -3 30 -30 0 -27 3 -30 30
-30 25 0 30 -4 30 -24 0 -19 6 -25 28 -28 21 -2 28 -9 30 -30 3 -21 9 -27 30
-30 21 -2 28 -9 30 -30 3 -24 8 -28 33 -28 24 0 29 -4 29 -24 0 -19 6 -25 28
-28 21 -2 28 -9 30 -30 3 -21 9 -27 30 -30 21 -2 28 -9 30 -30 3 -23 9 -27 52
-33 43 -6 49 -10 52 -33 2 -21 9 -28 31 -30 21 -3 27 -9 27 -28 0 -20 5 -24
30 -24 27 0 30 -3 30 -30 0 -27 3 -30 30 -30 27 0 30 -3 30 -30 0 -27 3 -30
30 -30 25 0 30 -4 30 -24 0 -19 6 -25 28 -28 21 -2 28 -9 30 -30 3 -24 8 -28
33 -28 25 0 29 -4 29 -29 0 -27 3 -29 55 -36 50 -6 55 -9 55 -31 0 -20 5 -24
30 -24 27 0 30 -3 30 -30 0 -27 3 -30 30 -30 27 0 30 -3 30 -30 0 -27 3 -30
30 -30 27 0 30 -3 30 -30 0 -27 3 -30 30 -30 25 0 30 -4 30 -24 0 -19 6 -25
28 -28 21 -2 28 -9 30 -30 3 -24 8 -28 33 -28 26 0 29 -3 29 -30 0 -27 3 -30
30 -30 27 0 30 -3 30 -30 0 -30 1 -30 55 -30 54 0 55 0 55 -30 0 -25 4 -30 24
-30 19 0 25 -6 28 -27 2 -22 9 -29 31 -31 21 -3 27 -9 27 -28 0 -20 5 -24 30
-24 27 0 30 -3 30 -30 0 -27 3 -30 30 -30 27 0 30 -3 30 -30 0 -27 3 -30 30
-30 27 0 30 -3 30 -30 0 -27 3 -30 30 -30 25 0 30 -4 30 -24 0 -19 6 -25 28
-28 21 -2 28 -9 30 -29 3 -24 8 -27 57 -34 49 -6 54 -9 57 -33 2 -21 9 -28 31
-30 21 -3 27 -9 27 -28 0 -20 5 -24 30 -24 27 0 30 -3 30 -30 0 -27 3 -30 30
-30 27 0 30 -3 30 -30 0 -27 3 -30 30 -30 27 0 30 -3 30 -30 0 -27 3 -30 30
-30 25 0 30 -4 30 -24 0 -19 6 -25 28 -28 21 -2 28 -9 30 -30 3 -24 8 -27 58
-34 51 -6 54 -8 54 -35 0 -26 4 -29 30 -29 25 0 30 -4 30 -24 0 -19 6 -25 28
-28 21 -2 28 -9 30 -30 3 -22 9 -28 27 -28 18 0 24 -6 27 -27 2 -22 9 -29 30
-31 21 -3 27 -9 30 -30 2 -21 9 -28 31 -30 21 -3 27 -9 27 -28 0 -20 5 -24 30
-24 27 0 30 -3 30 -30 0 -27 3 -30 30 -30 27 0 30 -3 30 -30 0 -30 1 -30 55
-30 54 0 55 0 55 -30 0 -27 3 -30 30 -30 27 0 30 -3 30 -30 0 -27 3 -30 30
-30 27 0 30 -3 30 -30 0 -27 3 -30 30 -30 25 0 30 -4 30 -24 0 -19 6 -25 28
-28 21 -2 28 -9 30 -30 3 -24 8 -28 33 -28 26 0 29 -3 29 -30 0 -27 3 -30 30
-30 27 0 30 -3 30 -30 0 -27 3 -30 30 -30 25 0 30 -4 30 -24 0 -22 5 -25 55
-31 52 -7 55 -9 55 -36 0 -26 4 -29 30 -29 27 0 30 -3 30 -30 0 -27 3 -30 30
-30 25 0 30 -4 30 -25 0 -20 5 -25 25 -25 21 0 25 -5 25 -30 0 -27 3 -30 30
-30 27 0 30 -3 30 -30 0 -27 3 -30 30 -30 25 0 30 -4 30 -25 0 -21 5 -25 30
-25 26 0 30 -3 30 -29 0 -27 3 -29 54 -35 50 -7 55 -10 58 -34 2 -21 9 -28 31
-30 21 -3 27 -9 27 -28 0 -20 5 -24 30 -24 27 0 30 -3 30 -30 0 -27 3 -30 30
-30 27 0 30 -3 30 -30 0 -27 3 -30 30 -30 27 0 30 -3 30 -30 0 -27 3 -30 30
-30 25 0 30 -4 30 -24 0 -19 6 -25 28 -28 21 -2 28 -9 30 -30 3 -24 8 -28 33
-28 25 0 29 -4 29 -29 0 -27 3 -29 55 -36 50 -6 55 -9 55 -31 0 -20 5 -24 30
-24 27 0 30 -3 30 -30 0 -27 3 -30 30 -30 27 0 30 -3 30 -30 0 -27 3 -30 30
-30 27 0 30 -3 30 -30 0 -27 3 -30 30 -30 25 0 30 -4 30 -24 0 -19 6 -25 28
-28 21 -2 28 -9 30 -30 3 -21 9 -27 30 -30 21 -2 28 -9 30 -30 3 -22 9 -28 28
-28 20 0 24 -5 24 -30 0 -30 1 -30 54 -30 52 0 55 -1 58 -27 2 -22 9 -29 30
-31 21 -3 27 -9 30 -30 2 -21 9 -28 30 -30 21 -3 27 -9 30 -30 2 -21 9 -28 31
-30 21 -3 27 -9 27 -28 0 -20 5 -24 30 -24 27 0 30 -3 30 -30 0 -27 3 -30 30
-30 27 0 30 -3 30 -30 0 -27 3 -30 30 -30 25 0 30 -4 30 -24 0 -22 5 -25 54
-31 50 -7 55 -10 58 -34 2 -20 9 -27 30 -29 21 -3 27 -9 30 -30 2 -21 9 -28
31 -30 21 -3 27 -9 27 -27 0 -18 6 -24 28 -27 21 -2 28 -9 30 -30 3 -24 8 -28
33 -28 26 0 29 -3 29 -30 0 -27 3 -30 30 -30 27 0 30 -3 30 -30 0 -27 3 -30
30 -30 25 0 30 -4 30 -24 0 -19 6 -25 28 -28 21 -2 28 -9 30 -30 3 -24 8 -27
58 -34 51 -6 54 -8 54 -35 0 -24 4 -29 25 -29 20 0 25 -5 25 -25 0 -21 5 -25
30 -25 27 0 30 -3 30 -30 0 -27 3 -30 30 -30 27 0 30 -3 30 -30 0 -27 3 -30
30 -30 25 0 30 -4 30 -25 0 -21 5 -25 30 -25 27 0 30 -3 30 -30 0 -27 3 -30
30 -30 26 0 30 -3 30 -29 0 -27 3 -29 55 -36 50 -6 55 -9 55 -31 0 -20 5 -24
30 -24 27 0 30 -3 30 -30 0 -27 3 -30 30 -30 27 0 30 -3 30 -30 0 -27 3 -30
30 -30 27 0 30 -3 30 -30 0 -27 3 -30 30 -30 25 0 30 -4 30 -24 0 -19 6 -25
28 -28 21 -2 28 -9 30 -30 3 -21 9 -27 30 -30 21 -2 28 -9 30 -30 3 -24 8 -28
33 -28 24 0 29 -4 29 -24 0 -22 5 -25 55 -31 52 -7 55 -9 55 -36 0 -26 4 -29
30 -29 27 0 30 -3 30 -30 0 -27 3 -30 30 -30 25 0 30 -4 30 -24 0 -19 6 -25
28 -28 21 -2 28 -9 30 -30 3 -22 9 -28 28 -28 20 0 24 -5 24 -29 0 -26 4 -30
33 -33 24 -2 33 -8 35 -25 3 -17 10 -23 28 -23 20 0 24 -5 24 -30 0 -27 3 -30
30 -30 26 0 30 -3 30 -29 0 -27 3 -29 54 -35 50 -7 55 -10 58 -34 2 -21 9 -28
31 -30 21 -3 27 -9 27 -28 0 -20 5 -24 30 -24 27 0 30 -3 30 -30 0 -27 3 -30
30 -30 27 0 30 -3 30 -30 0 -27 3 -30 30 -30 27 0 30 -3 30 -30 0 -27 3 -30
30 -30 25 0 30 -4 30 -24 0 -19 6 -25 28 -28 21 -2 28 -9 30 -29 3 -24 8 -27
57 -34 49 -6 54 -9 57 -33 2 -21 9 -28 31 -30 21 -3 27 -9 27 -28 0 -20 5 -24
30 -24 27 0 30 -3 30 -30 0 -27 3 -30 30 -30 27 0 30 -3 30 -30 0 -27 3 -30
30 -30 27 0 30 -3 30 -30 0 -25 4 -30 25 -30 20 0 25 -5 25 -24 0 -21 6 -25
33 -28 27 -2 33 -8 35 -30 3 -22 9 -28 28 -28 20 0 24 -5 24 -30 0 -30 1 -30
55 -30 54 0 55 0 55 -30 0 -27 3 -30 29 -30 25 0 30 -4 33 -27 2 -22 9 -29 30
-31 21 -3 27 -9 30 -30 2 -21 9 -28 31 -30 21 -3 27 -9 27 -28 0 -20 5 -24 30
-24 27 0 30 -3 30 -30 0 -27 3 -30 30 -30 27 0 30 -3 30 -30 0 -27 3 -30 30
-30 25 0 30 -4 30 -24 0 -19 6 -25 28 -28 21 -2 28 -9 30 -30 3 -24 8 -27 58
-34 51 -6 54 -8 54 -35 0 -26 4 -29 30 -29 27 0 30 -3 30 -30 0 -27 3 -30 30
-30 25 0 30 -4 30 -24 0 -19 6 -25 28 -28 21 -2 28 -9 30 -30 3 -21 9 -27 30
-30 21 -2 28 -9 30 -30 3 -24 8 -28 33 -28 24 0 29 -4 29 -24 0 -19 6 -25 28
-28 21 -2 28 -9 30 -30 3 -22 9 -28 28 -28 20 0 24 -5 24 -29 l0 -28 108 -7
c59 -3 1557 -5 3330 -5 l3222 1 0 341 c0 188 -3 359 -6 380 -6 33 -10 37 -35
37 -26 0 -29 4 -29 30 0 27 -3 30 -30 30 -27 0 -30 3 -30 30 0 27 -3 30 -30
30 -25 0 -30 4 -30 24 0 19 -6 25 -27 28 -22 2 -29 9 -31 30 -3 24 -8 27 -58
34 -51 6 -54 8 -54 35 0 26 -4 29 -30 29 -25 0 -30 4 -30 24 0 19 -6 25 -27
28 -22 2 -29 9 -31 31 -3 21 -9 27 -28 27 -20 0 -24 5 -24 30 0 28 -3 30 -35
30 -32 0 -35 2 -35 30 0 27 -3 30 -30 30 -25 0 -30 4 -30 24 0 19 -6 25 -27
28 -22 2 -29 9 -31 31 -3 21 -9 27 -28 27 -20 0 -24 5 -24 29 0 27 -3 29 -55
36 -50 6 -55 9 -55 31 0 20 -5 24 -30 24 -27 0 -30 3 -30 30 0 27 -3 30 -30
30 -27 0 -30 3 -30 30 0 27 -3 30 -30 30 -27 0 -30 3 -30 30 0 27 -3 30 -30
30 -25 0 -30 4 -30 25 0 21 -5 25 -30 25 -27 0 -30 3 -30 30 0 27 -3 30 -30
30 -27 0 -30 3 -30 30 0 27 -3 30 -30 30 -27 0 -30 3 -30 30 0 30 -1 30 -55
30 -54 0 -55 0 -55 30 0 27 -3 30 -30 30 -27 0 -30 3 -30 30 0 27 -3 30 -30
30 -27 0 -30 3 -30 30 0 27 -3 30 -30 30 -25 0 -30 4 -30 24 0 19 -6 25 -27
28 -22 2 -29 9 -31 30 -3 21 -9 27 -30 30 -21 2 -28 9 -30 31 -3 23 -8 27 -33
27 -24 0 -29 4 -29 25 0 20 -5 25 -25 25 -21 0 -25 5 -25 29 0 27 -3 29 -54
35 -50 7 -55 10 -58 34 -2 21 -9 28 -30 30 -22 3 -28 9 -28 28 0 20 -5 24 -30
24 -27 0 -30 3 -30 30 0 27 -3 30 -30 30 -27 0 -30 3 -30 30 0 27 -3 30 -30
30 -27 0 -30 3 -30 30 0 27 -3 30 -30 30 -25 0 -30 4 -30 24 0 19 -6 25 -27
28 -22 2 -29 9 -31 30 -3 21 -9 27 -30 30 -21 2 -28 9 -30 29 -3 24 -8 27 -58
34 -48 6 -54 9 -54 30 0 18 -6 24 -27 27 -22 2 -29 9 -31 31 -3 23 -8 27 -33
27 -26 0 -29 3 -29 30 0 25 -4 30 -24 30 -19 0 -25 6 -28 28 -2 22 -8 28 -35
30 -27 3 -33 8 -33 27 0 18 -6 24 -27 27 -22 2 -29 9 -31 30 -3 21 -9 27 -30
30 -21 2 -28 9 -30 31 -3 21 -9 27 -28 27 -20 0 -24 5 -24 30 0 30 -1 30 -55
30 -54 0 -55 0 -55 30 0 27 -3 30 -29 30 -25 0 -30 4 -33 28 -2 21 -9 28 -30
30 -21 3 -27 9 -30 30 -2 21 -9 28 -30 30 -22 3 -28 9 -28 28 0 20 -5 24 -30
24 -27 0 -30 3 -30 30 0 27 -3 30 -30 30 -27 0 -30 3 -30 30 0 27 -3 30 -30
30 -25 0 -30 4 -30 24 0 19 -6 25 -27 28 -22 2 -29 9 -31 30 -3 24 -8 27 -58
34 -51 6 -54 8 -54 35 0 26 -4 29 -30 29 -25 0 -30 4 -30 24 0 19 -6 25 -27
28 -22 2 -29 9 -31 30 -3 21 -9 27 -30 30 -21 2 -28 9 -30 31 -3 21 -9 27 -27
27 -18 0 -24 6 -27 28 -2 21 -9 28 -30 30 -22 3 -28 9 -28 27 0 19 -6 24 -32
27 -28 2 -34 8 -36 31 -3 21 -9 27 -28 27 -20 0 -24 5 -24 29 0 27 -3 29 -55
36 -50 6 -55 9 -55 31 0 20 -5 24 -30 24 -27 0 -30 3 -30 30 0 27 -3 30 -30
30 -27 0 -30 3 -30 30 0 27 -3 30 -30 30 -27 0 -30 3 -30 30 0 27 -3 30 -30
30 -25 0 -30 4 -30 25 0 21 -5 25 -30 25 -27 0 -30 3 -30 30 0 27 -3 30 -30
30 -27 0 -30 3 -30 30 0 27 -3 30 -30 30 -27 0 -30 3 -30 30 0 30 -1 30 -55
30 -54 0 -55 0 -55 30 0 27 -3 30 -30 30 -27 0 -30 3 -30 30 0 27 -3 30 -30
30 -27 0 -30 3 -30 30 0 25 -4 30 -25 30 -20 0 -25 5 -25 25 0 21 -5 25 -30
25 -27 0 -30 3 -30 30 0 27 -3 30 -30 30 -27 0 -30 3 -30 30 0 28 -3 30 -35
30 -30 0 -35 3 -35 24 0 18 -6 25 -22 28 -16 2 -24 11 -26 29 -3 24 -8 27 -57
34 -49 6 -54 9 -57 33 -2 21 -9 28 -30 30 -22 3 -28 9 -28 28 0 20 -5 24 -30
24 -27 0 -30 3 -30 30 0 27 -3 30 -30 30 -27 0 -30 3 -30 30 0 27 -3 30 -30
30 -27 0 -30 3 -30 30 0 27 -3 30 -30 30 -25 0 -30 4 -30 24 0 19 -6 25 -27
28 -22 2 -29 9 -31 31 -3 23 -8 27 -33 27 -25 0 -29 4 -29 29 0 27 -3 29 -55
36 -49 6 -55 9 -55 30 0 18 -6 24 -27 27 -22 2 -29 9 -31 31 -3 23 -8 27 -33
27 -26 0 -29 3 -29 30 0 25 -4 30 -24 30 -19 0 -25 6 -28 28 -2 21 -9 28 -30
30 -22 3 -28 9 -28 28 0 20 -5 24 -30 24 -27 0 -30 3 -30 29 0 26 -4 30 -32
33 -28 2 -34 8 -36 31 -3 21 -9 27 -28 27 -20 0 -24 5 -24 30 0 30 -1 30 -54
30 -52 0 -55 1 -58 28 -2 21 -9 28 -30 30 -21 3 -27 9 -30 30 -2 21 -9 28 -30
30 -21 3 -27 9 -30 30 -2 21 -9 28 -30 30 -22 3 -28 9 -28 28 0 20 -5 24 -30
24 -27 0 -30 3 -30 30 0 27 -3 30 -30 30 -27 0 -30 3 -30 30 0 27 -3 30 -30
30 -25 0 -30 4 -30 24 0 19 -6 25 -27 28 -22 2 -29 9 -31 30 -3 24 -8 27 -58
34 -51 6 -54 8 -54 35 0 26 -4 29 -30 29 -25 0 -30 4 -30 24 0 19 -6 25 -27
28 -22 2 -29 9 -31 31 -3 21 -9 27 -28 27 -20 0 -24 5 -24 30 0 27 -3 30 -29
30 -25 0 -30 4 -33 28 -2 21 -9 28 -30 30 -22 3 -28 9 -28 28 0 20 -5 24 -30
24 -27 0 -30 3 -30 30 0 27 -3 30 -30 30 -26 0 -30 3 -30 29 0 27 -3 29 -55
36 -50 6 -55 9 -55 31 0 20 -5 24 -30 24 -27 0 -30 3 -30 30 0 27 -3 30 -30
30 -27 0 -30 3 -30 30 0 27 -3 30 -30 30 -27 0 -30 3 -30 30 0 27 -3 30 -30
30 -25 0 -30 4 -30 24 0 19 -6 25 -27 28 -22 2 -29 9 -31 31 -3 23 -8 27 -33
27 -26 0 -29 3 -29 30 0 27 -3 30 -30 30 -27 0 -30 3 -30 30 0 30 -1 30 -55
30 -54 0 -55 0 -55 30 0 27 -3 30 -30 30 -27 0 -30 3 -30 30 0 27 -3 30 -30
30 -27 0 -30 3 -30 30 0 25 -4 30 -25 30 -20 0 -25 5 -25 25 0 21 -5 25 -30
25 -27 0 -30 3 -30 30 0 27 -3 30 -30 30 -27 0 -30 3 -30 30 0 27 -3 30 -30
30 -27 0 -30 3 -30 30 0 25 -4 30 -24 30 -22 0 -23 4 -29 83 -4 45 -7 3114 -7
6820 l0 6737 -4810 0 -4810 0 0 -2499 c0 -1729 -3 -2502 -10 -2506 -6 -4 -33
-4 -60 0 -44 6 -50 10 -50 31 0 20 -5 24 -30 24 -27 0 -30 3 -30 30 0 27 -3
30 -30 30 -25 0 -30 4 -30 24 0 19 -6 25 -27 28 -22 2 -29 9 -31 30 -3 21 -9
27 -30 30 -21 2 -28 9 -30 29 -3 24 -8 27 -58 34 -49 6 -54 9 -54 31 0 19 -5
24 -24 24 -19 0 -25 6 -28 28 -2 22 -8 28 -35 30 -29 3 -33 7 -33 33 0 24 -4
29 -25 29 -20 0 -25 5 -25 25 0 21 -5 25 -30 25 -27 0 -30 3 -30 30 0 27 -3
30 -30 30 -27 0 -30 3 -30 30 0 27 -3 30 -30 30 -27 0 -30 3 -30 30 0 27 -3
30 -30 30 -25 0 -30 4 -30 24 0 22 -5 25 -54 31 -50 7 -55 10 -58 34 -2 20 -9
27 -30 29 -21 3 -27 9 -30 30 -2 21 -9 28 -30 30 -21 3 -27 9 -30 30 -2 21 -9
28 -30 30 -22 3 -28 9 -28 28 0 20 -5 24 -30 24 -27 0 -30 3 -30 30 0 27 -3
30 -30 30 -27 0 -30 3 -30 30 0 27 -3 30 -30 30 -25 0 -30 4 -30 24 0 19 -6
25 -27 28 -22 2 -29 9 -31 30 -3 24 -8 27 -58 34 -51 6 -54 8 -54 35 0 24 -4
29 -25 29 -20 0 -25 5 -25 24 0 21 -6 25 -32 28 -28 2 -34 8 -36 31 -3 21 -9
27 -27 27 -18 0 -24 6 -27 28 -2 21 -9 28 -30 30 -21 3 -27 9 -30 30 -2 21 -9
28 -30 30 -22 3 -28 9 -28 28 0 20 -5 24 -30 24 -27 0 -30 3 -30 30 0 27 -3
30 -30 30 -26 0 -30 3 -30 29 0 27 -3 29 -55 36 -50 6 -55 9 -55 31 0 20 -5
24 -30 24 -27 0 -30 3 -30 30 0 27 -3 30 -30 30 -27 0 -30 3 -30 30 0 27 -3
30 -30 30 -25 0 -30 4 -30 24 0 19 -6 25 -27 28 -22 2 -29 9 -31 31 -3 23 -8
27 -33 27 -26 0 -29 3 -29 30 0 27 -3 30 -30 30 -27 0 -30 3 -30 30 0 27 -3
30 -30 30 -25 0 -30 4 -30 24 0 22 -5 25 -55 31 -52 7 -55 9 -55 36 0 24 -4
29 -24 29 -19 0 -25 6 -28 28 -2 21 -9 28 -30 30 -22 3 -28 9 -28 28 0 20 -5
24 -30 24 -27 0 -30 3 -30 30 0 27 -3 30 -30 30 -27 0 -30 3 -30 30 0 27 -3
30 -30 30 -27 0 -30 3 -30 30 0 27 -3 30 -30 30 -25 0 -30 4 -30 25 0 21 -5
25 -30 25 -26 0 -30 3 -30 29 0 27 -3 29 -54 35 -50 7 -55 10 -58 34 -2 21 -9
28 -30 30 -22 3 -28 9 -28 28 0 20 -5 24 -30 24 -27 0 -30 3 -30 30 0 27 -3
30 -30 30 -27 0 -30 3 -30 30 0 27 -3 30 -30 30 -27 0 -30 3 -30 30 0 27 -3
30 -30 30 -25 0 -30 4 -30 24 0 19 -6 25 -27 28 -22 2 -29 9 -31 31 -3 23 -8
27 -33 27 -25 0 -29 4 -29 29 0 27 -3 29 -55 36 -50 6 -55 9 -55 31 0 19 -5
24 -24 24 -19 0 -25 6 -28 28 -2 21 -9 28 -30 30 -21 3 -27 9 -30 30 -2 21 -9
28 -30 30 -21 3 -27 9 -30 30 -2 21 -9 28 -30 30 -22 3 -28 9 -28 28 0 20 -5
24 -30 24 -27 0 -30 3 -30 30 0 27 -3 30 -30 30 -27 0 -30 3 -30 30 0 27 -3
30 -30 30 -25 0 -30 4 -30 24 0 22 -5 25 -55 31 -52 7 -55 9 -55 36 0 25 -4
29 -29 29 -25 0 -30 4 -33 28 -2 21 -9 28 -30 30 -22 3 -28 9 -28 28 0 20 -5
24 -30 24 -27 0 -30 3 -30 30 0 27 -3 30 -30 30 -27 0 -30 3 -30 30 0 27 -3
30 -30 30 -27 0 -30 3 -30 30 0 27 -3 30 -30 30 -25 0 -30 4 -30 24 0 19 -6
25 -27 28 -22 2 -29 9 -31 30 -3 24 -8 27 -58 34 -51 6 -54 8 -54 35 0 24 -4
29 -25 29 -20 0 -25 5 -25 25 0 21 -5 25 -30 25 -27 0 -30 3 -30 30 0 27 -3
30 -30 30 -27 0 -30 3 -30 30 0 27 -3 30 -29 30 -25 0 -30 4 -33 28 -2 21 -9
28 -30 30 -22 3 -28 9 -28 28 0 20 -5 24 -30 24 -27 0 -30 3 -30 30 0 27 -3
30 -30 30 -27 0 -30 3 -30 30 0 30 -1 30 -55 30 -54 0 -55 0 -55 30 0 27 -3
30 -30 30 -27 0 -30 3 -30 30 0 27 -3 30 -30 30 -27 0 -30 3 -30 30 0 27 -3
30 -30 30 -27 0 -30 3 -30 30 0 27 -3 30 -30 30 -25 0 -30 4 -30 24 0 19 -6
25 -27 28 -22 2 -29 9 -31 31 -3 23 -8 27 -33 27 -26 0 -29 3 -29 30 0 27 -3
30 -30 30 -25 0 -30 4 -30 24 0 22 -5 25 -55 31 -52 7 -55 9 -55 36 0 24 -4
29 -24 29 -19 0 -25 6 -28 28 -2 21 -9 28 -30 30 -22 3 -28 9 -28 28 0 20 -5
24 -30 24 -27 0 -30 3 -30 30 0 27 -3 30 -30 30 -27 0 -30 3 -30 30 0 27 -3
30 -30 30 -27 0 -30 3 -30 30 0 27 -3 30 -30 30 -25 0 -30 4 -30 25 0 21 -5
25 -30 25 -26 0 -30 3 -30 29 0 27 -3 29 -54 35 -50 7 -55 10 -58 34 -2 21 -9
28 -30 30 -22 3 -28 9 -28 28 0 20 -5 24 -30 24 -27 0 -30 3 -30 30 0 27 -3
30 -30 30 -27 0 -30 3 -30 30 0 27 -3 30 -30 30 -27 0 -30 3 -30 30 0 27 -3
30 -30 30 -25 0 -30 4 -30 24 0 19 -6 25 -27 28 -22 2 -29 9 -31 30 -3 21 -9
27 -30 30 -21 2 -28 9 -30 30 -3 25 -7 27 -55 30 -48 3 -52 5 -55 31 -3 21 -9
27 -27 27 -18 0 -24 6 -27 28 -2 21 -9 28 -30 30 -21 3 -27 9 -30 30 -2 21 -9
28 -30 30 -21 3 -27 9 -30 30 -2 21 -9 28 -30 30 -22 3 -28 9 -28 28 0 20 -5
24 -30 24 -27 0 -30 3 -30 30 0 27 -3 30 -30 30 -27 0 -30 3 -30 30 0 27 -3
30 -30 30 -25 0 -30 4 -30 24 0 22 -5 25 -55 31 -52 7 -55 9 -55 36 0 25 -4
29 -29 29 -25 0 -30 4 -33 28 -2 21 -9 28 -30 30 -22 3 -28 9 -28 27 0 18 -6
24 -27 27 -22 2 -29 9 -31 31 -3 23 -8 27 -33 27 -26 0 -29 3 -29 30 0 27 -3
30 -30 30 -27 0 -30 3 -30 30 0 27 -3 30 -30 30 -25 0 -30 4 -30 24 0 19 -6
25 -27 28 -22 2 -29 9 -31 30 -3 24 -8 27 -58 34 -51 6 -54 8 -54 35 0 24 -4
29 -25 29 -20 0 -25 5 -25 25 0 21 -5 25 -30 25 -27 0 -30 3 -30 30 0 27 -3
30 -29 30 -25 0 -30 4 -33 28 -2 21 -9 28 -30 30 -21 3 -27 9 -30 30 -2 21 -9
28 -30 30 -22 3 -28 9 -28 28 0 20 -5 24 -30 24 -27 0 -30 3 -30 30 0 25 -4
30 -25 30 -20 0 -25 -5 -25 -24z"/>
<path d="M35460 40295 l0 -25 -102 0 c-57 0 -160 -3 -230 -7 -126 -6 -128 -7
-128 -30 0 -22 -3 -23 -74 -23 -40 0 -94 -3 -120 -6 -40 -6 -46 -10 -46 -30 0
-23 -2 -24 -90 -24 -88 0 -90 -1 -90 -24 0 -19 -6 -24 -37 -30 -21 -3 -59 -6
-85 -6 -47 0 -48 -1 -48 -30 0 -30 -1 -30 -54 -30 -52 0 -55 -1 -58 -27 -3
-27 -6 -28 -60 -31 -53 -3 -58 -5 -58 -27 0 -21 -6 -24 -60 -30 -54 -6 -60 -9
-60 -30 0 -20 -6 -23 -55 -30 -50 -6 -55 -9 -55 -31 0 -20 -5 -24 -30 -24 -27
0 -30 -3 -30 -30 0 -27 -3 -30 -30 -30 -25 0 -30 -4 -30 -24 0 -21 -6 -24 -54
-30 -50 -7 -55 -10 -58 -34 -2 -22 -9 -28 -35 -30 -27 -3 -33 -8 -33 -27 0
-18 -6 -24 -27 -27 -22 -2 -29 -9 -31 -30 -3 -24 -8 -28 -33 -28 -26 0 -29 -3
-29 -30 0 -27 -3 -30 -30 -30 -27 0 -30 -3 -30 -30 0 -25 -4 -30 -25 -30 -20
0 -25 -5 -25 -25 0 -21 -5 -25 -30 -25 -27 0 -30 -3 -30 -29 0 -25 -4 -30 -27
-33 -22 -2 -29 -9 -31 -30 -3 -22 -9 -28 -27 -28 -19 0 -24 -6 -27 -32 -2 -27
-8 -34 -30 -36 -24 -3 -27 -8 -34 -58 -6 -48 -9 -54 -29 -54 -18 0 -24 -6 -27
-27 -2 -22 -9 -29 -30 -31 -24 -3 -28 -8 -28 -33 0 -26 -3 -29 -30 -29 -30 0
-30 -1 -30 -55 0 -51 -2 -55 -24 -55 -22 0 -25 -5 -31 -60 -6 -54 -9 -60 -30
-60 -21 0 -24 -6 -30 -60 -6 -55 -9 -60 -31 -60 -22 0 -24 -4 -24 -55 0 -54 0
-55 -30 -55 l-29 0 -3 -87 c-3 -88 -3 -88 -30 -91 l-28 -3 0 -85 0 -84 -30 0
-30 0 0 -90 c0 -88 -1 -90 -24 -90 -22 0 -23 -4 -30 -92 -3 -50 -6 -153 -6
-230 l0 -138 -25 0 -25 0 0 -175 0 -175 25 0 25 0 0 -189 c0 -103 3 -209 6
-235 6 -40 10 -46 30 -46 24 0 24 -1 24 -115 l0 -115 30 0 30 0 0 -90 0 -90
30 0 30 0 0 -85 0 -85 30 0 30 0 0 -60 c0 -57 1 -60 24 -60 21 0 24 -6 31 -55
6 -49 9 -55 30 -55 21 0 24 -6 30 -60 6 -55 9 -60 31 -60 20 0 24 -5 24 -30 0
-27 3 -30 30 -30 30 0 30 -1 30 -54 0 -52 1 -55 28 -58 22 -2 28 -8 30 -35 3
-27 8 -33 27 -33 18 0 24 -6 27 -27 2 -22 9 -29 30 -31 24 -3 27 -8 34 -58 6
-51 8 -54 35 -54 24 0 29 -4 29 -25 0 -20 5 -25 25 -25 21 0 25 -5 25 -30 0
-27 3 -30 30 -30 27 0 30 -3 30 -30 0 -27 3 -30 30 -30 27 0 30 -3 30 -30 0
-27 3 -30 30 -30 27 0 30 -3 30 -30 0 -27 3 -30 30 -30 27 0 30 -3 30 -30 0
-27 3 -30 30 -30 25 0 30 -4 30 -24 0 -22 5 -25 55 -31 52 -7 55 -9 55 -36 0
-26 4 -29 30 -29 25 0 30 -4 30 -24 0 -21 6 -24 55 -31 49 -6 55 -9 55 -30 0
-19 6 -24 33 -27 27 -2 33 -8 35 -30 3 -27 6 -28 58 -28 53 0 54 0 54 -30 0
-30 1 -30 55 -30 54 0 55 0 55 -30 l0 -30 60 0 60 0 0 -30 0 -30 60 0 c56 0
60 -1 60 -24 0 -20 6 -24 46 -30 26 -3 64 -6 85 -6 35 0 39 -3 39 -25 0 -23 4
-25 44 -25 24 0 64 -3 90 -6 40 -6 46 -10 46 -30 0 -24 2 -24 99 -24 54 0 119
-3 145 -6 40 -6 46 -10 46 -30 l0 -24 465 0 465 0 0 24 c0 20 6 24 46 30 26 3
93 6 150 6 103 0 104 0 104 24 0 20 6 24 46 30 26 3 64 6 85 6 35 0 39 3 39
25 0 23 4 25 44 25 24 0 64 3 90 6 40 6 46 10 46 30 0 21 5 24 39 24 21 0 59
3 85 6 40 6 46 10 46 30 0 22 4 24 54 24 52 0 55 1 58 28 2 22 8 28 36 30 26
3 32 8 32 27 0 21 6 24 55 30 49 7 55 10 55 30 0 21 6 24 60 30 58 7 60 8 60
36 0 26 4 29 30 29 25 0 30 4 30 24 0 21 6 24 55 31 50 6 55 9 55 31 0 20 5
24 30 24 27 0 30 3 30 30 0 27 3 30 30 30 27 0 30 3 30 30 0 27 3 30 30 30 25
0 30 4 30 24 0 19 6 25 28 28 21 2 28 9 30 30 3 21 9 27 30 30 21 2 28 9 30
31 3 21 9 27 28 27 20 0 24 5 24 30 0 27 3 30 30 30 27 0 30 3 30 30 0 27 3
30 30 30 27 0 30 3 30 30 0 27 3 30 30 30 27 0 30 3 30 30 0 25 4 30 24 30 22
0 25 5 31 55 7 49 10 55 31 55 20 0 24 5 24 30 0 26 3 30 29 30 27 0 29 3 36
55 6 49 9 55 29 55 21 0 24 6 30 60 6 55 9 60 31 60 24 0 25 3 25 60 l0 60 30
0 c30 0 30 1 30 55 0 51 2 55 24 55 22 0 25 5 31 60 6 54 9 60 30 60 19 0 23
6 29 53 3 28 6 69 6 90 0 33 3 37 25 37 23 0 25 4 25 44 0 24 3 64 6 90 6 40
10 46 30 46 l24 0 0 145 0 145 30 0 30 0 0 435 0 435 -24 0 c-20 0 -24 6 -30
46 -3 26 -6 91 -6 145 0 97 0 99 -24 99 -20 0 -24 6 -30 46 -3 26 -6 66 -6 90
0 40 -2 44 -25 44 -22 0 -25 4 -25 39 0 21 -3 59 -6 85 -6 40 -10 46 -30 46
-22 0 -24 4 -24 48 0 88 -10 122 -35 122 -20 0 -23 7 -29 60 -6 55 -9 60 -31
60 -24 0 -25 3 -25 60 l0 60 -30 0 c-30 0 -30 1 -30 54 0 52 -1 55 -27 58 -23
2 -29 8 -31 36 -3 26 -8 32 -27 32 -21 0 -24 6 -30 54 -7 50 -10 55 -34 58
-20 2 -27 9 -29 31 -3 21 -9 27 -28 27 -20 0 -24 5 -24 30 0 27 -3 30 -30 30
-27 0 -30 3 -30 30 0 27 -3 30 -30 30 -30 0 -30 1 -30 55 0 54 0 55 -30 55
-27 0 -30 3 -30 30 0 27 -3 30 -30 30 -27 0 -30 3 -30 30 0 27 -3 30 -30 30
-25 0 -30 4 -30 24 0 19 -6 25 -27 28 -22 2 -29 9 -31 30 -3 24 -8 27 -58 34
-51 6 -54 8 -54 35 0 26 -4 29 -30 29 -25 0 -30 4 -30 24 0 19 -6 25 -27 28
-22 2 -29 9 -31 31 -3 26 -6 27 -58 27 -53 0 -54 0 -54 30 0 27 -3 30 -30 30
-27 0 -30 3 -30 30 l0 30 -60 0 c-57 0 -60 1 -60 24 0 22 -5 25 -55 31 -49 7
-55 10 -55 30 0 21 -6 24 -60 30 -54 6 -60 9 -60 30 0 21 -6 24 -60 30 -55 6
-60 9 -60 31 0 22 -4 24 -47 24 -27 0 -65 3 -85 6 -32 6 -38 11 -38 30 0 23
-2 24 -84 24 l-85 0 -3 28 -3 27 -117 3 c-116 3 -118 3 -118 26 0 22 -5 23
-82 29 -46 4 -138 7 -205 7 l-123 0 0 25 c0 21 -5 25 -30 25 -25 0 -30 -4 -30
-25 0 -20 -5 -25 -25 -25 -20 0 -25 5 -25 25 0 21 -5 25 -30 25 -25 0 -30 -4
-30 -25 0 -21 -5 -25 -30 -25 -25 0 -30 4 -30 25 0 21 -5 25 -30 25 -25 0 -30
-4 -30 -25z"/>
<path d="M18723 34313 c-59 -4 -63 -5 -63 -28 0 -25 -1 -25 -99 -25 -54 0
-119 -3 -145 -6 -40 -6 -46 -10 -46 -30 0 -23 -2 -24 -90 -24 -88 0 -90 -1
-90 -24 0 -19 -6 -24 -37 -30 -21 -3 -59 -6 -85 -6 -47 0 -48 -1 -48 -30 l0
-30 -60 0 c-57 0 -60 -1 -60 -24 0 -22 -5 -25 -55 -31 -49 -7 -55 -10 -55 -31
0 -21 -5 -23 -57 -26 -54 -3 -58 -5 -61 -29 -3 -24 -8 -27 -58 -34 -49 -6 -54
-9 -54 -31 0 -21 -5 -24 -35 -24 -32 0 -35 -2 -35 -30 0 -30 -1 -30 -55 -30
-54 0 -55 0 -55 -30 0 -27 -3 -30 -30 -30 -25 0 -30 -4 -30 -24 0 -19 -6 -25
-27 -28 -22 -2 -29 -9 -31 -30 -3 -24 -8 -28 -33 -28 -25 0 -29 -4 -29 -29 0
-27 -3 -29 -55 -36 -50 -6 -55 -9 -55 -31 0 -20 -5 -24 -30 -24 -27 0 -30 -3
-30 -30 0 -25 -4 -30 -24 -30 -19 0 -25 -6 -28 -27 -2 -22 -9 -29 -30 -31 -24
-3 -27 -8 -34 -58 -6 -51 -8 -54 -35 -54 -25 0 -29 -4 -29 -29 0 -25 -4 -30
-27 -33 -22 -2 -29 -9 -31 -30 -3 -22 -9 -28 -28 -28 -20 0 -24 -5 -24 -30 0
-27 -3 -30 -30 -30 -30 0 -30 -1 -30 -55 0 -54 0 -55 -30 -55 -28 0 -30 -3
-30 -35 0 -30 -3 -35 -24 -35 -22 0 -25 -5 -31 -55 -7 -49 -10 -55 -30 -55
-21 0 -24 -6 -30 -60 -6 -55 -9 -60 -31 -60 -22 0 -24 -4 -24 -55 0 -54 0 -55
-30 -55 -29 0 -30 -1 -30 -47 0 -27 -3 -65 -6 -85 -6 -32 -11 -38 -30 -38 -23
0 -24 -3 -24 -65 0 -62 -1 -65 -24 -65 -19 0 -24 -6 -30 -37 -3 -21 -6 -59 -6
-85 0 -44 -2 -48 -24 -48 -22 0 -23 -4 -30 -92 -3 -50 -6 -115 -6 -145 0 -49
-2 -53 -23 -53 l-24 0 -6 -182 c-9 -230 -9 -517 0 -680 6 -126 7 -128 30 -128
22 0 23 -4 23 -62 0 -35 3 -100 7 -145 6 -79 7 -83 29 -83 22 0 24 -4 24 -52
0 -29 3 -70 6 -90 6 -32 11 -38 30 -38 23 0 24 -2 24 -85 l0 -85 30 0 30 0 0
-60 c0 -57 1 -60 24 -60 22 0 25 -5 31 -60 6 -54 9 -60 30 -60 20 0 23 -6 30
-55 6 -49 9 -55 30 -55 21 0 24 -6 30 -60 6 -55 9 -60 31 -60 20 0 24 -5 24
-30 0 -27 3 -30 30 -30 30 0 30 -1 30 -54 0 -52 1 -55 28 -58 21 -2 28 -9 30
-30 3 -22 9 -28 27 -28 19 0 24 -6 27 -32 2 -27 8 -34 30 -36 23 -3 27 -9 33
-52 6 -43 10 -49 33 -52 21 -2 28 -9 30 -30 3 -21 9 -27 30 -30 21 -2 28 -9
30 -30 3 -22 9 -28 28 -28 20 0 24 -5 24 -30 0 -27 3 -30 30 -30 27 0 30 -3
30 -30 0 -27 3 -30 30 -30 27 0 30 -3 30 -30 0 -30 1 -30 55 -30 54 0 55 0 55
-30 0 -27 3 -30 30 -30 27 0 30 -3 30 -30 0 -27 3 -30 30 -30 25 0 30 -4 30
-24 0 -21 6 -24 55 -31 49 -6 55 -9 55 -30 0 -19 6 -24 33 -27 27 -2 33 -8 35
-30 3 -27 6 -28 58 -28 53 0 54 0 54 -30 0 -30 1 -30 54 -30 52 0 55 -1 58
-27 3 -26 6 -28 60 -31 53 -3 57 -5 60 -30 3 -25 6 -27 61 -30 52 -3 57 -5 57
-26 0 -20 6 -24 46 -30 26 -3 64 -6 85 -6 35 0 39 -3 39 -25 0 -23 4 -25 44
-25 24 0 64 -3 90 -6 40 -6 46 -10 46 -30 0 -23 2 -23 118 -26 l117 -3 3 -27
3 -28 549 0 549 0 3 28 3 27 118 3 c115 3 117 3 117 26 0 19 7 24 38 30 20 3
58 6 85 6 43 0 47 2 47 25 0 22 4 25 38 25 20 0 61 3 90 6 46 6 52 9 52 30 0
22 4 24 55 24 54 0 55 0 55 30 0 29 1 30 48 30 26 0 64 3 85 6 31 6 37 11 37
30 0 21 5 24 35 24 32 0 35 2 35 30 0 30 1 30 54 30 52 0 55 1 58 28 3 26 6
27 61 30 56 3 57 4 57 32 0 27 3 30 30 30 25 0 30 4 30 24 0 19 6 25 28 28 21
2 28 9 30 29 3 24 8 27 58 34 49 6 54 9 54 31 0 20 5 24 30 24 27 0 30 3 30
30 0 27 3 30 30 30 27 0 30 3 30 30 0 25 4 30 24 30 19 0 25 6 28 28 2 21 9
28 30 30 21 3 27 9 30 30 2 21 9 28 30 30 21 3 27 9 30 30 2 21 9 28 31 30 21
3 27 9 27 28 0 20 5 24 30 24 30 0 30 1 30 54 0 52 1 55 28 58 21 2 28 9 30
30 3 21 9 27 30 30 22 2 28 9 30 36 3 26 8 32 26 32 21 0 24 6 31 55 6 49 9
55 30 55 21 0 24 6 30 60 6 54 9 60 30 60 20 0 23 6 30 55 6 50 9 55 31 55 23
0 24 3 24 60 l0 60 30 0 30 0 0 60 c0 57 1 60 25 60 22 0 25 5 31 60 6 54 9
60 29 60 22 0 23 5 30 110 7 107 8 110 31 110 23 0 24 3 24 74 0 40 3 94 6
120 6 39 10 46 29 46 22 0 22 0 29 274 3 150 3 400 0 555 l-7 281 -22 0 c-27
0 -35 35 -35 153 0 75 0 77 -25 77 -22 0 -25 4 -25 38 0 20 -3 61 -6 90 -6 46
-9 52 -30 52 -21 0 -24 5 -24 39 0 21 -3 59 -6 85 -6 40 -10 46 -30 46 -23 0
-24 4 -24 60 l0 60 -30 0 -30 0 0 85 0 85 -30 0 c-27 0 -30 3 -30 30 0 25 -4
30 -24 30 -22 0 -25 5 -31 60 -6 54 -9 60 -30 60 -21 0 -24 6 -30 54 -7 50
-10 55 -34 58 -20 2 -27 9 -29 31 -3 21 -9 27 -28 27 -20 0 -24 5 -24 30 0 27
-3 30 -30 30 -30 0 -30 1 -30 55 0 54 0 55 -30 55 -27 0 -30 3 -30 30 0 27 -3
30 -30 30 -27 0 -30 3 -30 30 0 27 -3 30 -30 30 -27 0 -30 3 -30 29 0 25 -4
30 -27 33 -22 2 -29 9 -31 31 -3 21 -9 27 -27 27 -18 0 -24 6 -27 28 -2 21 -9
28 -30 30 -22 3 -28 9 -28 28 0 20 -5 24 -30 24 -26 0 -30 3 -30 29 0 27 -3
29 -55 36 -49 6 -55 9 -55 30 0 19 -6 24 -32 27 -27 2 -34 8 -36 30 -3 21 -9
27 -30 30 -21 2 -28 9 -30 31 -3 26 -6 27 -58 27 -53 0 -54 0 -54 30 0 30 -1
30 -54 30 -52 0 -55 1 -58 28 -3 25 -6 27 -60 30 -53 3 -57 5 -60 30 -3 25 -6
27 -60 30 -54 3 -58 5 -58 27 0 22 -4 24 -57 27 -55 3 -58 4 -61 31 -3 24 -7
27 -41 27 -21 0 -59 3 -85 6 -40 6 -46 10 -46 30 0 22 -3 23 -87 26 -81 3 -88
5 -91 24 -4 27 -40 34 -179 34 -101 0 -103 0 -103 24 0 22 -4 23 -92 30 -91 6
-727 5 -845 -1z"/>
<path d="M31320 33005 l0 -25 -132 0 c-73 0 -190 -3 -260 -7 -124 -6 -128 -7
-128 -28 0 -22 -5 -23 -120 -30 -118 -7 -120 -7 -120 -31 0 -22 -4 -24 -47
-24 -27 0 -65 -3 -85 -6 -32 -6 -38 -11 -38 -30 0 -23 -4 -24 -60 -24 -56 0
-60 -1 -60 -24 0 -20 -6 -24 -46 -30 -26 -3 -64 -6 -85 -6 -34 0 -38 -3 -41
-27 -3 -26 -6 -28 -60 -31 -53 -3 -57 -5 -60 -30 -2 -21 -9 -28 -30 -30 -22
-3 -28 -9 -28 -27 0 -22 -4 -24 -57 -27 -54 -3 -58 -5 -61 -29 -3 -24 -8 -27
-58 -34 -49 -6 -54 -9 -54 -31 0 -20 -5 -24 -30 -24 -27 0 -30 -3 -30 -30 0
-27 -3 -30 -30 -30 -25 0 -30 -4 -30 -25 0 -21 -5 -25 -30 -25 -26 0 -30 -3
-30 -29 0 -27 -3 -29 -54 -35 -50 -7 -55 -10 -58 -34 -2 -21 -9 -28 -30 -30
-21 -3 -27 -9 -30 -30 -2 -21 -9 -28 -30 -30 -22 -3 -28 -9 -28 -28 0 -20 -5
-24 -30 -24 -27 0 -30 -3 -30 -30 0 -25 -4 -30 -24 -30 -19 0 -25 -6 -28 -27
-2 -22 -9 -29 -30 -31 -24 -3 -27 -8 -33 -57 -7 -49 -10 -54 -34 -57 -20 -2
-27 -9 -29 -30 -3 -22 -9 -28 -28 -28 -20 0 -24 -5 -24 -30 0 -27 -3 -30 -30
-30 -30 0 -30 -1 -30 -55 0 -54 0 -55 -30 -55 -28 0 -30 -3 -30 -35 0 -30 -3
-35 -24 -35 -22 0 -25 -5 -31 -55 -7 -49 -10 -55 -30 -55 -21 0 -24 -6 -30
-60 -6 -54 -9 -60 -30 -60 -22 0 -24 -5 -27 -57 -3 -55 -4 -58 -30 -61 -27 -3
-28 -6 -28 -58 0 -53 0 -54 -30 -54 l-29 0 -3 -87 c-3 -88 -3 -88 -30 -91
l-28 -3 0 -115 0 -114 -30 0 -30 0 0 -120 c0 -119 0 -120 -23 -120 l-24 0 -6
-257 c-9 -332 -9 -8068 0 -8235 6 -126 7 -128 30 -128 22 0 23 -2 23 -90 l0
-90 30 0 30 0 0 -85 0 -85 30 0 c27 0 30 -3 30 -29 0 -25 4 -30 28 -33 26 -3
27 -6 30 -60 3 -57 4 -58 32 -58 25 0 30 -4 30 -24 0 -19 6 -25 28 -28 21 -2
28 -9 30 -30 3 -21 9 -27 30 -30 21 -2 28 -9 30 -30 3 -24 8 -27 58 -34 47 -5
54 -9 54 -29 0 -20 7 -24 55 -30 50 -6 55 -9 55 -31 0 -21 5 -24 35 -24 32 0
35 -2 35 -30 l0 -30 85 0 c83 0 85 -1 85 -24 0 -22 4 -23 83 -29 106 -9 358
-9 465 0 78 6 82 7 82 29 0 23 2 24 90 24 l90 0 0 30 0 30 60 0 60 0 0 30 c0
27 3 30 30 30 25 0 30 4 30 24 0 22 5 25 54 31 50 7 55 10 58 34 2 20 9 27 30
29 21 3 27 9 30 30 2 21 9 28 31 30 21 3 27 9 27 28 0 20 5 24 30 24 l30 0 0
60 0 60 30 0 c27 0 30 3 30 30 0 25 4 30 24 30 19 0 24 6 30 38 3 20 6 58 6
85 0 43 2 47 24 47 20 0 24 6 30 46 3 26 6 64 6 85 0 35 3 39 25 39 l25 0 0
3383 c0 1861 3 3425 6 3475 l7 92 608 0 609 0 0 -10005 0 -10005 30 0 30 0 0
-84 0 -85 28 -3 c27 -3 27 -3 30 -90 l3 -88 29 0 c27 0 30 -3 30 -30 0 -25 4
-30 25 -30 22 0 24 -4 27 -57 3 -55 4 -58 31 -61 26 -3 27 -6 27 -58 0 -53 0
-54 30 -54 27 0 30 -3 30 -30 0 -27 3 -30 30 -30 27 0 30 -3 30 -30 0 -25 4
-30 24 -30 19 0 25 -6 28 -28 2 -21 9 -28 30 -30 21 -3 27 -9 30 -30 2 -21 9
-28 31 -30 21 -3 27 -9 27 -27 0 -19 6 -24 33 -27 27 -2 33 -8 35 -30 l3 -28
870 0 869 0 0 30 c0 27 3 30 30 30 25 0 30 4 30 24 0 21 6 24 54 30 50 7 55
10 58 34 2 21 9 28 30 30 21 3 27 9 30 30 2 21 9 28 30 30 25 3 27 7 30 55 3
48 5 52 31 55 23 3 27 8 27 33 0 26 3 29 30 29 30 0 30 1 30 54 0 52 1 55 28
58 26 3 27 6 30 61 3 52 5 57 27 57 21 0 24 6 30 60 6 54 9 60 31 60 22 0 23
3 26 88 3 87 3 87 31 90 l27 3 0 6052 c0 3329 3 6069 6 6090 l7 37 602 0 602
0 7 -37 c3 -21 6 -2750 6 -6065 l0 -6028 24 0 c20 0 24 -6 30 -46 3 -26 6 -66
6 -90 0 -40 2 -44 25 -44 22 0 25 -4 25 -39 0 -21 3 -59 6 -85 6 -39 10 -46
29 -46 21 0 24 -6 30 -60 6 -55 9 -60 31 -60 22 0 24 -4 24 -55 0 -54 0 -55
30 -55 27 0 30 -3 30 -29 0 -25 4 -30 28 -33 21 -2 28 -9 30 -30 3 -22 9 -28
28 -28 20 0 24 -5 24 -30 0 -27 3 -30 29 -30 25 0 30 -4 33 -27 2 -22 9 -29
30 -31 21 -3 27 -9 30 -30 2 -21 9 -28 31 -30 21 -3 27 -9 27 -28 0 -20 5 -24
30 -24 27 0 30 -3 30 -30 l0 -30 875 0 875 0 0 30 c0 27 3 30 30 30 25 0 30 4
30 24 0 19 6 25 28 28 21 2 28 9 30 30 3 21 9 27 30 30 21 2 28 9 30 31 3 21
9 27 28 27 20 0 24 5 24 30 0 27 3 30 30 30 27 0 30 3 30 30 0 27 3 30 30 30
27 0 30 3 30 30 0 25 4 30 24 30 22 0 25 5 31 55 7 49 10 55 30 55 21 0 24 6
30 60 6 54 9 60 30 60 22 0 24 5 27 57 3 55 4 58 31 61 27 3 27 4 27 80 0 120
8 152 36 152 l24 0 0 10005 0 10005 613 -2 612 -3 3 -3442 2 -3443 25 0 c24 0
25 -2 25 -69 0 -37 3 -89 6 -115 6 -40 10 -46 30 -46 21 0 23 -5 26 -57 3 -55
4 -58 31 -61 26 -3 27 -6 27 -58 0 -53 0 -54 30 -54 27 0 30 -3 30 -30 0 -25
4 -30 25 -30 21 0 25 -5 25 -30 0 -25 -4 -30 -25 -30 -21 0 -25 -5 -25 -30 0
-27 -3 -30 -30 -30 -25 0 -30 -4 -30 -24 0 -22 -5 -25 -54 -31 -50 -7 -55 -10
-58 -34 -2 -20 -9 -27 -30 -29 -22 -3 -28 -9 -28 -28 0 -20 -5 -24 -30 -24
-27 0 -30 -3 -30 -30 0 -27 -3 -30 -30 -30 -27 0 -30 -3 -30 -30 0 -27 -3 -30
-30 -30 -27 0 -30 -3 -30 -30 0 -27 -3 -30 -30 -30 -27 0 -30 -3 -30 -30 0
-27 -3 -30 -30 -30 -27 0 -30 -3 -30 -30 0 -25 -4 -30 -24 -30 -19 0 -25 -6
-28 -27 -2 -22 -9 -29 -30 -31 -27 -3 -28 -6 -28 -58 0 -53 0 -54 -30 -54 -30
0 -30 -1 -30 -55 0 -54 0 -55 -30 -55 -28 0 -30 -3 -30 -35 0 -30 -3 -35 -24
-35 -22 0 -25 -5 -31 -55 -6 -48 -10 -55 -30 -55 -19 0 -23 -7 -29 -46 -3 -26
-6 -64 -6 -85 0 -34 -3 -39 -24 -39 -21 0 -24 -6 -30 -52 -3 -29 -6 -70 -6
-90 0 -34 -3 -38 -25 -38 -24 0 -25 -2 -25 -67 0 -38 -3 -92 -6 -120 -6 -47
-9 -53 -30 -53 l-24 0 0 -290 0 -290 24 0 c19 0 24 -6 30 -37 3 -21 6 -59 6
-85 0 -43 2 -47 28 -50 21 -2 28 -9 30 -30 3 -22 9 -28 28 -28 20 0 24 -5 24
-30 0 -27 3 -30 30 -30 27 0 30 -3 30 -30 0 -27 3 -30 30 -30 25 0 30 -4 30
-25 0 -21 5 -25 30 -25 27 0 30 -3 30 -30 0 -28 1 -29 58 -32 54 -3 57 -4 60
-30 l3 -28 230 0 229 0 0 24 c0 20 6 24 46 30 26 3 64 6 85 6 35 0 39 3 39 24
0 21 6 25 33 28 26 2 33 8 35 30 3 21 9 27 30 30 21 2 28 9 30 31 3 21 9 27
28 27 20 0 24 5 24 30 0 27 3 30 30 30 27 0 30 3 30 30 0 25 4 30 24 30 19 0
24 6 30 38 3 20 6 61 6 90 0 48 2 52 23 52 23 0 24 3 30 122 4 66 7 156 7 200
0 77 0 78 25 78 23 0 25 4 25 48 0 88 10 122 35 122 20 0 23 7 29 60 6 55 9
60 31 60 21 0 25 5 25 30 0 27 3 30 30 30 27 0 30 3 30 30 0 27 3 30 30 30 27
0 30 3 30 30 0 27 3 30 30 30 25 0 30 4 30 24 0 22 5 25 60 31 55 6 60 9 60
31 0 21 5 24 39 24 21 0 59 3 85 6 40 6 46 10 46 30 l0 24 205 0 205 0 0 -25
c0 -22 4 -25 39 -25 21 0 59 -3 85 -6 39 -6 46 -10 46 -29 0 -21 6 -24 60 -30
54 -6 60 -9 60 -30 0 -18 6 -24 28 -27 21 -2 28 -9 30 -30 3 -21 9 -27 30 -30
21 -2 28 -9 30 -30 3 -22 9 -28 28 -28 20 0 24 -5 24 -30 0 -26 3 -30 29 -30
27 0 29 -3 36 -55 6 -50 9 -55 31 -55 23 0 24 -3 24 -60 0 -56 1 -60 24 -60
20 0 24 -6 30 -46 3 -26 6 -2611 6 -5745 l0 -5699 24 0 c20 0 24 -6 30 -46 3
-26 6 -66 6 -90 0 -40 2 -44 24 -44 22 0 25 -5 31 -55 7 -49 10 -55 31 -55 20
0 24 -5 24 -30 l0 -30 560 0 560 0 0 25 c0 20 5 25 25 25 22 0 25 4 25 35 0
32 2 35 30 35 30 0 30 1 30 55 0 51 2 55 24 55 22 0 23 4 30 92 8 120 8 11291
-1 11516 -6 172 -6 172 -30 172 -22 0 -23 3 -23 78 0 120 -8 152 -36 152 -23
0 -24 2 -24 90 l0 90 -30 0 -30 0 0 60 0 60 -30 0 c-30 0 -30 1 -30 55 0 51
-2 55 -24 55 -22 0 -25 5 -31 60 -6 55 -9 60 -31 60 -20 0 -24 5 -24 30 0 26
-3 30 -29 30 -27 0 -29 3 -36 55 -6 50 -9 55 -31 55 -21 0 -24 5 -24 35 0 32
-2 35 -30 35 -25 0 -30 4 -30 24 0 19 -6 25 -27 28 -22 2 -29 9 -31 31 -3 21
-9 27 -28 27 -20 0 -24 5 -24 30 0 27 -3 30 -30 30 -27 0 -30 3 -30 30 0 27
-3 30 -30 30 -27 0 -30 3 -30 30 0 27 -3 30 -30 30 -25 0 -30 4 -30 24 0 19
-6 25 -27 28 -22 2 -29 9 -31 31 -3 23 -8 27 -33 27 -26 0 -29 3 -29 30 0 30
-1 30 -55 30 -54 0 -55 0 -55 30 l0 30 -60 0 -60 0 0 30 c0 27 -3 30 -30 30
-25 0 -30 4 -30 24 0 22 -5 25 -60 31 -54 6 -60 9 -60 30 0 22 -5 24 -57 27
-55 3 -58 4 -61 31 -3 21 -9 27 -28 27 -20 0 -24 5 -24 30 0 25 4 30 24 30 20
0 24 6 30 46 3 26 6 66 6 90 0 40 2 44 24 44 22 0 23 4 29 83 9 108 9 8314 0
8480 -6 124 -7 127 -29 127 -23 0 -23 1 -26 143 l-3 142 -27 3 -28 3 0 115 0
114 -30 0 -30 0 0 60 c0 56 -1 60 -24 60 -19 0 -24 6 -30 38 -3 20 -6 58 -6
84 0 43 -2 47 -27 50 -23 2 -29 8 -31 36 -3 26 -8 32 -27 32 -22 0 -24 5 -27
53 -3 48 -5 52 -30 55 -25 3 -27 7 -30 60 -3 54 -5 57 -30 60 -27 3 -28 6 -28
58 0 53 0 54 -30 54 -27 0 -30 3 -30 30 0 27 -3 30 -30 30 -27 0 -30 3 -30 30
0 25 -4 30 -24 30 -22 0 -25 5 -31 54 -7 50 -10 55 -34 58 -20 2 -27 9 -29 31
-3 21 -9 27 -28 27 -20 0 -24 5 -24 30 0 27 -3 30 -30 30 -27 0 -30 3 -30 30
0 27 -3 30 -30 30 -27 0 -30 3 -30 30 0 27 -3 30 -30 30 -25 0 -30 4 -30 24 0
19 -6 25 -27 28 -22 2 -29 9 -31 30 -3 21 -9 27 -30 30 -21 2 -28 9 -30 30 -3
21 -9 27 -30 30 -21 2 -28 9 -30 30 -3 25 -7 27 -55 30 -48 3 -52 5 -55 31 -3
23 -8 27 -33 27 -24 0 -29 4 -29 24 0 22 -5 25 -54 31 -50 7 -55 10 -58 34 -2
21 -9 27 -35 29 -27 3 -33 8 -33 27 0 22 -5 24 -52 27 -49 3 -53 5 -56 30 -3
25 -7 27 -60 30 -54 3 -57 5 -60 31 -3 26 -6 27 -58 27 -53 0 -54 0 -54 30 l0
30 -90 0 c-88 0 -90 1 -90 24 0 19 -6 24 -37 30 -21 3 -59 6 -85 6 -44 0 -48
2 -48 24 0 20 -6 24 -46 30 -26 3 -80 6 -120 6 -71 0 -74 1 -74 23 0 23 -2 24
-127 30 -71 4 -188 7 -260 7 l-133 0 0 25 0 25 -4345 0 -4345 0 0 -25z"/>
<path d="M19010 26875 l0 -25 -230 0 -230 0 0 -24 c0 -20 -6 -24 -46 -30 -26
-3 -80 -6 -120 -6 -71 0 -74 -1 -74 -24 0 -20 -6 -24 -46 -30 -26 -3 -66 -6
-90 -6 -40 0 -44 -2 -44 -25 0 -22 -4 -25 -39 -25 -21 0 -59 -3 -85 -6 -40 -6
-46 -10 -46 -30 0 -21 -5 -23 -57 -26 -55 -3 -58 -4 -61 -30 -3 -27 -6 -28
-58 -28 -53 0 -54 0 -54 -30 l0 -30 -60 0 -60 0 0 -30 c0 -27 -3 -30 -30 -30
-25 0 -30 -4 -30 -24 0 -22 -5 -25 -55 -31 -49 -7 -55 -10 -55 -31 0 -20 -5
-24 -30 -24 -26 0 -30 -3 -30 -29 0 -27 -3 -29 -55 -36 -50 -6 -55 -9 -55 -31
0 -20 -5 -24 -29 -24 -25 0 -30 -4 -33 -27 -2 -22 -9 -29 -30 -31 -21 -3 -27
-9 -30 -30 -2 -21 -9 -28 -30 -30 -22 -3 -28 -9 -28 -28 0 -20 -5 -24 -30 -24
-27 0 -30 -3 -30 -30 0 -27 -3 -30 -30 -30 -27 0 -30 -3 -30 -30 0 -27 -3 -30
-30 -30 -27 0 -30 -3 -30 -30 0 -27 -3 -30 -30 -30 -27 0 -30 -3 -30 -30 0
-25 -4 -30 -25 -30 -21 0 -25 -5 -25 -30 0 -27 -3 -30 -30 -30 -30 0 -30 -1
-30 -55 0 -54 0 -55 -30 -55 -28 0 -30 -3 -30 -35 0 -30 -3 -35 -24 -35 -22 0
-25 -5 -31 -55 -7 -49 -10 -55 -30 -55 -21 0 -24 -6 -30 -54 -7 -50 -10 -55
-34 -58 -21 -2 -27 -9 -29 -35 -3 -27 -8 -33 -27 -33 -21 0 -24 -6 -30 -55 -7
-49 -10 -55 -31 -55 -20 0 -24 -5 -24 -30 0 -27 -3 -30 -30 -30 -28 0 -29 -1
-32 -57 -3 -55 -4 -58 -30 -61 -24 -3 -28 -8 -28 -33 0 -24 -4 -29 -24 -29
-22 0 -25 -5 -31 -55 -6 -48 -10 -55 -30 -55 -20 0 -24 -7 -30 -55 -6 -49 -9
-55 -30 -55 -19 0 -24 -6 -27 -32 -2 -27 -8 -34 -29 -36 -24 -3 -27 -8 -34
-58 -6 -49 -9 -54 -31 -54 -20 0 -24 -5 -24 -30 0 -27 -3 -30 -30 -30 l-30 0
0 -60 0 -60 -30 0 c-27 0 -30 -3 -30 -30 0 -25 -4 -30 -24 -30 -21 0 -24 -6
-31 -55 -6 -49 -9 -55 -30 -55 -21 0 -24 -6 -30 -60 -6 -55 -9 -60 -31 -60
-20 0 -24 -5 -24 -30 0 -27 -3 -30 -30 -30 -30 0 -30 -1 -30 -55 0 -54 0 -55
-30 -55 -28 0 -30 -3 -30 -35 0 -30 -3 -35 -24 -35 -22 0 -25 -5 -31 -55 -7
-52 -9 -55 -36 -55 -26 0 -29 -4 -29 -30 0 -25 -4 -30 -25 -30 -24 0 -25 -3
-25 -55 0 -54 -1 -55 -29 -55 -27 0 -29 -2 -35 -60 -6 -55 -9 -60 -31 -60 -21
0 -25 -5 -25 -30 0 -27 -3 -30 -30 -30 -30 0 -30 -1 -30 -54 0 -52 -1 -55 -27
-58 -23 -2 -29 -8 -31 -35 -3 -27 -8 -33 -27 -33 -21 0 -24 -6 -30 -55 -7 -49
-10 -55 -31 -55 -20 0 -24 -5 -24 -30 0 -27 -3 -30 -30 -30 -30 0 -30 -1 -30
-55 0 -54 0 -55 -30 -55 -28 0 -30 -3 -30 -35 0 -32 -2 -35 -30 -35 -25 0 -30
-4 -30 -25 l0 -25 -1592 0 c-876 0 -1610 -3 -1630 -6 -32 -6 -38 -11 -38 -30
0 -23 -2 -24 -90 -24 l-90 0 0 -30 0 -30 -60 0 c-57 0 -60 -1 -60 -24 0 -22
-5 -25 -55 -31 -49 -7 -55 -10 -55 -30 0 -21 -6 -24 -60 -30 -58 -7 -60 -8
-60 -36 0 -26 -4 -29 -30 -29 -25 0 -30 -4 -30 -25 0 -20 -5 -25 -25 -25 -21
0 -25 -5 -25 -30 0 -27 -3 -30 -30 -30 -27 0 -30 -3 -30 -30 0 -27 -3 -30 -30
-30 -27 0 -30 -3 -30 -30 0 -27 -3 -30 -30 -30 -30 0 -30 -1 -30 -55 0 -54 0
-55 -30 -55 -27 0 -30 -3 -30 -30 0 -27 -3 -30 -30 -30 l-30 0 0 -60 0 -60
-30 0 -30 0 0 -60 c0 -56 -1 -60 -24 -60 -20 0 -24 -6 -30 -46 -3 -26 -6 -78
-6 -115 0 -67 -1 -69 -25 -69 l-25 0 0 -290 0 -290 24 0 c23 0 24 -3 31 -115
7 -113 7 -115 31 -115 23 0 24 -3 24 -60 l0 -60 30 0 30 0 0 -60 0 -60 30 0
c30 0 30 -1 30 -55 0 -54 0 -55 30 -55 27 0 30 -3 30 -29 0 -25 4 -30 28 -33
21 -2 28 -9 30 -30 3 -22 9 -28 28 -28 20 0 24 -5 24 -30 0 -27 3 -30 30 -30
27 0 30 -3 30 -30 0 -27 3 -30 30 -30 25 0 30 -4 30 -25 0 -21 5 -25 30 -25
26 0 30 -3 30 -29 0 -28 2 -29 60 -36 54 -6 60 -9 60 -30 0 -20 6 -23 55 -30
50 -6 55 -9 55 -31 0 -23 3 -24 60 -24 l60 0 0 -30 0 -30 85 0 c83 0 85 -1 85
-24 0 -21 6 -24 49 -30 28 -4 1039 -6 2248 -6 1209 0 2210 0 2226 0 l27 0 0
-555 0 -555 -24 0 c-19 0 -25 -6 -28 -27 l-3 -28 -2560 -1 c-1408 0 -2629 -2
-2712 -2 l-153 -2 0 -25 c0 -24 -2 -25 -69 -25 -37 0 -89 -3 -115 -6 -40 -6
-46 -10 -46 -30 0 -22 -4 -24 -47 -24 -27 0 -65 -3 -85 -6 -32 -6 -38 -11 -38
-30 0 -23 -4 -24 -60 -24 l-60 0 0 -30 c0 -27 -3 -30 -29 -30 -25 0 -30 -4
-33 -27 -3 -26 -7 -28 -55 -31 -48 -3 -52 -5 -55 -30 -2 -21 -9 -28 -30 -30
-21 -3 -27 -9 -30 -30 -2 -21 -9 -28 -30 -30 -22 -3 -28 -9 -28 -28 0 -20 -5
-24 -30 -24 -27 0 -30 -3 -30 -30 0 -27 -3 -30 -30 -30 -30 0 -30 -1 -30 -55
0 -54 0 -55 -30 -55 -28 0 -30 -3 -30 -35 0 -30 -3 -35 -24 -35 -22 0 -25 -5
-31 -55 -7 -49 -10 -55 -30 -55 -21 0 -24 -6 -30 -60 -6 -54 -9 -60 -30 -60
-22 0 -24 -5 -27 -57 -3 -55 -4 -58 -30 -61 -27 -3 -28 -6 -28 -58 0 -53 0
-54 -30 -54 l-30 0 0 -60 0 -60 -30 0 -30 0 0 -60 c0 -57 -1 -60 -24 -60 -22
0 -25 -5 -31 -55 -7 -49 -10 -55 -30 -55 -21 0 -24 -6 -30 -60 -6 -54 -9 -60
-30 -60 -22 0 -24 -5 -27 -57 -3 -55 -4 -58 -30 -61 -27 -3 -28 -6 -28 -58 0
-53 0 -54 -30 -54 l-30 0 0 -60 0 -60 -30 0 -30 0 0 -60 c0 -57 -1 -60 -24
-60 -22 0 -25 -5 -31 -55 -7 -49 -10 -55 -30 -55 -21 0 -24 -6 -30 -60 -6 -54
-9 -60 -30 -60 -22 0 -24 -5 -27 -57 -3 -55 -4 -58 -30 -61 -27 -3 -28 -6 -28
-58 0 -53 0 -54 -30 -54 l-30 0 0 -60 0 -60 -30 0 c-30 0 -30 -1 -30 -54 0
-52 -1 -55 -27 -58 -27 -3 -28 -6 -31 -60 -3 -53 -5 -58 -27 -58 -21 0 -24 -6
-30 -60 -6 -54 -9 -60 -30 -60 -20 0 -23 -6 -30 -55 -6 -50 -9 -55 -31 -55
-23 0 -24 -3 -24 -60 l0 -60 -30 0 -30 0 0 -60 0 -60 -30 0 c-30 0 -30 -1 -30
-54 0 -52 -1 -55 -27 -58 -27 -3 -28 -6 -31 -60 -3 -53 -5 -58 -27 -58 -21 0
-24 -6 -30 -60 -6 -54 -9 -60 -30 -60 -20 0 -23 -6 -30 -55 -6 -50 -9 -55 -31
-55 -23 0 -24 -3 -24 -60 l0 -60 -30 0 -30 0 0 -60 0 -60 -30 0 c-30 0 -30 -1
-30 -54 0 -52 -1 -55 -27 -58 -27 -3 -28 -6 -31 -60 -3 -53 -5 -58 -27 -58
-21 0 -24 -6 -30 -60 -6 -54 -9 -60 -30 -60 -22 0 -24 -5 -27 -57 -3 -55 -4
-58 -30 -61 -27 -3 -28 -6 -28 -58 0 -53 0 -54 -30 -54 l-30 0 0 -60 0 -60
-30 0 -30 0 0 -60 c0 -57 -1 -60 -24 -60 -22 0 -25 -5 -31 -55 -7 -49 -10 -55
-30 -55 -21 0 -24 -6 -30 -60 -6 -54 -9 -60 -30 -60 -22 0 -24 -5 -27 -57 -3
-55 -4 -58 -30 -61 -27 -3 -28 -6 -28 -58 0 -53 0 -54 -30 -54 l-30 0 0 -60 0
-60 -30 0 -30 0 0 -60 c0 -57 -1 -60 -24 -60 -22 0 -25 -5 -31 -55 -7 -49 -10
-55 -30 -55 -21 0 -24 -6 -30 -60 -6 -54 -9 -60 -30 -60 -22 0 -24 -5 -27 -57
-3 -55 -4 -58 -30 -61 -27 -3 -28 -6 -28 -58 0 -53 0 -54 -30 -54 l-30 0 0
-60 0 -60 -30 0 c-30 0 -30 -1 -30 -54 0 -52 -1 -55 -27 -58 -27 -3 -28 -6
-31 -60 -3 -53 -5 -58 -27 -58 -21 0 -24 -6 -30 -60 -6 -54 -9 -60 -30 -60
-20 0 -23 -6 -30 -55 -6 -50 -9 -55 -31 -55 -23 0 -24 -3 -24 -60 l0 -60 -30
0 -30 0 0 -60 0 -60 -30 0 c-30 0 -30 -1 -30 -54 0 -52 -1 -55 -27 -58 -27 -3
-28 -6 -31 -60 -3 -53 -5 -58 -27 -58 -21 0 -24 -6 -30 -60 -6 -54 -9 -60 -30
-60 -20 0 -23 -6 -30 -55 -6 -50 -9 -55 -31 -55 -23 0 -24 -3 -24 -60 l0 -60
-30 0 -30 0 0 -60 0 -60 -30 0 c-30 0 -30 -1 -30 -54 0 -52 -1 -55 -28 -58
-26 -3 -27 -6 -30 -60 -3 -53 -5 -58 -27 -58 -21 0 -24 -6 -30 -60 -6 -54 -9
-60 -30 -60 -22 0 -24 -5 -27 -57 -3 -55 -4 -58 -30 -61 -27 -3 -28 -6 -28
-58 0 -53 0 -54 -30 -54 l-30 0 0 -60 0 -60 -30 0 -30 0 0 -60 c0 -56 -1 -60
-24 -60 -28 0 -36 -32 -36 -152 0 -76 0 -78 -25 -78 l-25 0 0 -290 0 -290 25
0 c25 0 25 -2 25 -77 0 -121 8 -153 36 -153 23 0 24 -4 24 -60 l0 -60 30 0 30
0 0 -60 0 -60 30 0 c30 0 30 -1 30 -54 0 -52 1 -55 28 -58 21 -2 28 -9 30 -30
3 -22 9 -28 28 -28 20 0 24 -5 24 -30 0 -27 3 -30 30 -30 27 0 30 -3 30 -30 0
-27 3 -30 30 -30 27 0 30 -3 30 -30 0 -27 3 -30 30 -30 25 0 30 -4 30 -24 0
-19 6 -25 27 -28 22 -2 29 -9 31 -29 3 -24 8 -27 58 -34 49 -6 54 -9 54 -31 0
-20 5 -24 30 -24 27 0 30 -3 30 -30 l0 -30 60 0 c56 0 60 -1 60 -24 0 -19 6
-24 38 -30 20 -3 61 -6 90 -6 48 0 52 -2 52 -24 0 -22 4 -23 83 -29 106 -9
620 -9 681 -1 40 6 46 10 46 30 0 22 4 24 48 24 26 0 64 3 85 6 31 6 37 11 37
30 0 23 4 24 60 24 l60 0 0 30 c0 30 1 30 54 30 52 0 55 1 58 28 2 22 8 28 36
30 26 3 32 8 32 27 0 21 6 24 55 30 52 7 55 9 55 36 0 26 4 29 30 29 27 0 30
3 30 30 0 25 4 30 25 30 20 0 25 5 25 25 0 21 5 25 29 25 27 0 29 3 35 54 7
50 10 55 34 58 22 2 28 9 30 36 3 26 7 32 28 32 23 0 24 3 24 55 0 54 1 55 29
55 28 0 29 2 36 60 6 55 9 60 31 60 22 0 24 4 24 55 0 54 0 55 30 55 l30 0 0
60 0 60 30 0 30 0 0 60 c0 57 1 60 24 60 21 0 24 6 31 55 6 49 9 55 29 55 21
0 24 6 30 60 6 55 9 60 31 60 22 0 24 4 27 58 3 54 4 57 31 60 26 3 27 5 27
63 0 59 0 59 30 59 30 0 30 1 30 55 0 51 2 55 24 55 22 0 25 5 31 60 6 54 9
60 30 60 20 0 23 6 30 55 6 49 9 55 29 55 21 0 24 6 30 60 6 54 9 60 31 60 21
0 24 6 30 60 6 55 9 60 31 60 22 0 24 4 24 55 0 54 0 55 30 55 30 0 30 0 30
59 0 58 1 60 28 63 26 3 27 6 30 61 3 53 5 57 27 57 22 0 24 4 27 58 3 54 4
57 31 60 26 3 27 6 27 58 0 53 0 54 30 54 l30 0 0 60 0 60 30 0 30 0 0 60 0
60 30 0 c30 0 30 1 30 55 0 51 2 55 24 55 22 0 25 5 31 60 6 54 9 60 30 60 20
0 23 6 30 55 6 49 9 55 29 55 21 0 24 6 30 60 6 55 9 60 31 60 22 0 24 4 27
58 3 54 4 57 31 60 26 3 27 5 27 63 0 59 0 59 30 59 30 0 30 1 30 55 0 51 2
55 24 55 22 0 25 5 31 60 6 54 9 60 30 60 20 0 23 6 30 55 6 49 9 55 29 55 21
0 24 6 30 60 6 55 9 60 31 60 22 0 24 4 27 58 3 54 4 57 31 60 26 3 27 6 27
58 0 53 0 54 30 54 30 0 30 0 30 59 0 58 1 60 28 63 26 3 27 6 30 61 3 53 5
57 27 57 21 0 24 6 30 55 6 48 10 55 30 55 20 0 23 6 29 60 6 55 9 60 31 60
22 0 24 4 27 58 3 54 5 57 30 60 25 3 27 7 30 60 3 54 5 57 31 60 26 3 27 6
27 58 0 50 2 54 24 54 22 0 25 5 31 60 6 54 9 60 30 60 21 0 24 6 30 55 6 48
10 55 30 55 20 0 23 6 29 60 6 55 9 60 31 60 22 0 24 4 27 58 3 54 4 57 31 60
26 3 27 6 27 58 0 53 0 54 30 54 27 0 30 3 30 30 l0 30 4123 0 c2268 0 4185 3
4260 7 135 6 137 6 137 30 0 23 2 23 103 23 145 0 177 7 177 36 0 23 2 24 89
24 l90 0 3 28 c3 27 4 27 85 30 81 3 82 3 85 30 3 25 6 27 61 30 52 3 57 5 57
27 0 21 6 24 60 30 54 6 60 9 60 30 0 22 5 24 58 27 54 3 57 4 60 31 3 26 6
27 58 27 53 0 54 0 54 30 0 27 3 30 30 30 27 0 30 3 30 30 0 30 1 30 54 30 52
0 55 1 58 28 2 22 8 28 36 30 26 3 32 8 32 27 0 18 6 24 28 27 21 2 28 9 30
30 3 21 9 27 30 30 21 2 28 9 30 31 3 21 9 27 27 27 18 0 24 6 27 28 2 21 9
28 31 30 21 3 27 9 27 27 0 18 6 24 28 27 21 2 28 9 30 30 3 21 9 27 30 30 21
2 28 9 30 30 3 21 9 27 30 30 21 2 28 9 30 31 3 21 9 27 28 27 20 0 24 5 24
30 0 27 3 30 30 30 27 0 30 3 30 30 0 27 3 30 30 30 30 0 30 1 30 54 0 52 1
55 28 58 22 2 28 8 30 36 3 26 8 32 27 32 21 0 24 6 30 55 6 48 10 55 30 55
20 0 24 7 30 55 6 49 9 55 29 55 21 0 24 6 30 60 6 55 9 60 31 60 24 0 25 3
25 60 l0 60 30 0 30 0 0 84 0 85 28 3 c27 3 27 3 30 91 3 84 4 87 26 87 20 0
24 6 30 46 3 26 6 78 6 115 0 66 1 69 24 69 l24 0 7 235 7 235 24 0 24 0 0
3470 0 3470 -24 0 -24 0 -7 235 -7 235 -23 0 c-22 0 -23 4 -30 115 -7 113 -7
115 -31 115 -22 0 -24 4 -24 48 0 26 -3 64 -6 85 -6 31 -11 37 -30 37 -23 0
-24 3 -24 65 0 62 -1 65 -24 65 -19 0 -24 6 -30 38 -3 20 -6 58 -6 85 0 46 -1
47 -30 47 -30 0 -30 1 -30 54 0 52 -1 55 -27 58 -23 2 -29 8 -31 36 -3 26 -8
32 -26 32 -21 0 -24 6 -31 55 -6 49 -9 55 -30 55 -20 0 -23 6 -30 55 -6 50 -9
55 -31 55 -20 0 -24 5 -24 29 0 25 -4 30 -27 33 -23 2 -29 8 -31 36 -3 26 -8
32 -27 32 -20 0 -24 6 -30 49 -6 44 -10 50 -33 53 -21 2 -28 9 -30 30 -3 21
-9 27 -30 30 -21 2 -28 9 -30 30 -3 21 -9 27 -30 30 -21 2 -28 9 -30 31 -3 21
-9 27 -28 27 -20 0 -24 5 -24 30 0 27 -3 30 -30 30 -27 0 -30 3 -30 30 0 30
-1 30 -55 30 -54 0 -55 0 -55 30 0 27 -3 30 -30 30 -27 0 -30 3 -30 30 0 27
-3 30 -30 30 -25 0 -30 4 -30 25 0 21 -5 25 -30 25 -27 0 -30 3 -30 30 0 28
-1 29 -57 32 -54 3 -58 5 -61 29 -3 24 -8 27 -58 34 -48 6 -54 9 -54 30 0 19
-6 24 -32 27 -25 2 -34 8 -36 25 -3 18 -12 23 -58 29 -47 5 -54 9 -54 29 0 19
-7 23 -46 29 -26 3 -64 6 -85 6 -34 0 -39 3 -39 24 0 22 -5 25 -60 31 -54 6
-60 9 -60 31 0 22 -3 23 -87 26 -88 3 -88 3 -91 31 l-3 27 -102 0 c-145 0
-177 7 -177 36 l0 24 -265 0 -265 0 0 25 c0 24 -3 25 -60 25 -57 0 -60 -1 -60
-25z"/>
<path d="M23620 20635 l0 -1775 30 0 c25 0 30 -4 30 -24 0 -22 5 -25 54 -31
l55 -7 7 -54 c6 -51 8 -54 35 -54 25 0 29 -4 29 -29 0 -25 4 -30 28 -33 21 -2
28 -9 30 -30 3 -22 9 -28 28 -28 20 0 24 -5 24 -30 0 -27 3 -30 30 -30 27 0
30 -3 30 -30 0 -27 3 -30 30 -30 27 0 30 -3 30 -30 0 -25 4 -30 24 -30 19 0
25 -6 28 -27 2 -22 9 -29 30 -31 24 -3 27 -8 34 -58 6 -48 9 -54 30 -54 20 0
24 -5 24 -30 0 -27 3 -30 30 -30 30 0 30 -1 30 -55 0 -54 0 -55 30 -55 27 0
30 -3 30 -29 0 -25 4 -30 28 -33 26 -3 27 -6 30 -60 3 -57 4 -58 32 -58 27 0
30 -3 30 -30 0 -25 4 -30 24 -30 22 0 25 -5 31 -60 6 -54 9 -60 30 -60 20 0
23 -6 30 -55 6 -50 9 -55 31 -55 23 0 24 -3 24 -60 l0 -60 30 0 c30 0 30 -1
30 -54 0 -52 1 -55 28 -58 26 -3 27 -6 30 -60 3 -53 5 -58 26 -58 20 0 24 -6
30 -46 3 -26 6 -64 6 -85 0 -34 3 -39 24 -39 22 0 24 -5 31 -65 6 -60 8 -65
31 -65 24 0 24 -2 24 -85 l0 -85 30 0 30 0 0 -115 0 -115 30 0 30 0 0 -120 c0
-119 0 -120 24 -120 20 0 24 -6 30 -46 3 -26 6 -116 6 -200 l0 -154 25 0 25 0
0 -555 0 -555 -25 0 -25 0 0 -129 c0 -70 -3 -149 -6 -175 -6 -40 -10 -46 -30
-46 -24 0 -24 -1 -24 -107 0 -151 -7 -183 -36 -183 -23 0 -24 -2 -24 -90 0
-88 -1 -90 -24 -90 -19 0 -24 -6 -30 -37 -3 -21 -6 -62 -6 -90 0 -50 -2 -53
-25 -53 -22 0 -25 -4 -25 -39 0 -21 -3 -59 -6 -85 -6 -40 -10 -46 -30 -46 -21
0 -24 -5 -24 -39 0 -21 -3 -59 -6 -85 -6 -39 -10 -46 -29 -46 -20 0 -23 -7
-29 -60 -6 -55 -9 -60 -31 -60 -24 0 -25 -3 -25 -60 l0 -60 -30 0 c-30 0 -30
-1 -30 -54 0 -52 -1 -55 -27 -58 -27 -3 -28 -6 -31 -60 -3 -57 -4 -58 -32 -58
-27 0 -30 -3 -30 -30 0 -25 -4 -30 -24 -30 -22 0 -25 -5 -31 -60 -6 -54 -9
-60 -30 -60 -20 0 -23 -6 -30 -55 -6 -49 -9 -55 -30 -55 -19 0 -24 -6 -27 -32
-2 -28 -8 -34 -30 -36 -27 -3 -28 -6 -28 -58 0 -53 0 -54 -30 -54 -27 0 -30
-3 -30 -30 0 -25 -4 -30 -24 -30 -19 0 -25 -6 -28 -27 -2 -22 -9 -29 -29 -31
-24 -3 -27 -8 -34 -58 -6 -49 -9 -54 -31 -54 -20 0 -24 -5 -24 -30 0 -27 -3
-30 -30 -30 -27 0 -30 -3 -30 -30 0 -27 -3 -30 -30 -30 -27 0 -30 -3 -30 -30
0 -27 -3 -30 -30 -30 -25 0 -30 -4 -30 -24 0 -19 -6 -25 -27 -28 -23 -2 -29
-8 -31 -35 -3 -27 -7 -33 -28 -33 -19 0 -24 -5 -24 -25 0 -21 -5 -25 -30 -25
-27 0 -30 -3 -30 -30 0 -27 -3 -30 -30 -30 -27 0 -30 -3 -30 -30 0 -27 -3 -30
-30 -30 -27 0 -30 -3 -30 -30 0 -27 -3 -30 -30 -30 -25 0 -30 -4 -30 -24 0
-19 -6 -25 -27 -28 -22 -2 -29 -9 -31 -30 -3 -21 -9 -27 -30 -30 -21 -2 -28
-9 -30 -29 -3 -24 -8 -27 -58 -34 -49 -6 -54 -9 -54 -31 0 -20 -5 -24 -30 -24
-27 0 -30 -3 -30 -30 0 -27 -3 -30 -30 -30 -25 0 -30 -4 -30 -24 0 -19 -6 -25
-27 -28 -22 -2 -29 -9 -31 -30 -3 -24 -8 -27 -58 -34 -48 -6 -54 -9 -54 -29 0
-21 -6 -24 -60 -30 -55 -6 -60 -9 -60 -31 0 -20 -5 -24 -30 -24 -27 0 -30 -3
-30 -30 0 -30 -1 -30 -54 -30 -52 0 -55 -1 -58 -27 -3 -27 -6 -28 -60 -31 -57
-3 -58 -4 -58 -32 0 -27 -3 -30 -30 -30 -25 0 -30 -4 -30 -24 0 -22 -5 -25
-60 -31 -55 -6 -60 -9 -60 -31 0 -21 -5 -24 -39 -24 -21 0 -59 -3 -85 -6 -40
-6 -46 -10 -46 -30 0 -21 -5 -23 -57 -26 -55 -3 -58 -4 -61 -30 l-3 -28 -85 0
-84 0 0 -30 0 -30 -60 0 c-56 0 -60 -1 -60 -24 0 -20 -6 -24 -46 -30 -26 -3
-66 -6 -90 -6 -40 0 -44 -2 -44 -24 0 -22 -4 -23 -82 -29 -46 -4 -109 -7 -140
-7 -55 0 -58 -1 -58 -25 0 -24 -2 -25 -74 -25 -40 0 -94 -3 -120 -6 -40 -6
-46 -10 -46 -30 l0 -24 -177 0 c-98 0 -215 -3 -260 -7 -73 -5 -82 -8 -85 -27
-3 -21 -6 -21 -293 -21 l-290 0 -3 28 -3 27 -260 0 -259 0 0 24 c0 22 -4 23
-92 30 -50 3 -117 6 -150 6 -55 0 -58 1 -58 25 0 24 -2 25 -69 25 -37 0 -89 3
-115 6 -40 6 -46 10 -46 30 0 22 -3 23 -87 26 -87 3 -88 3 -91 30 -3 27 -4 27
-85 30 -81 3 -82 3 -85 31 l-3 27 -85 0 -84 0 0 30 0 30 -60 0 c-57 0 -60 1
-60 25 0 22 -5 25 -60 31 -54 6 -60 9 -60 29 0 20 -7 24 -55 30 -49 6 -55 9
-55 30 0 22 -4 24 -57 27 -55 3 -58 5 -61 30 -3 25 -7 27 -60 30 -54 3 -57 5
-60 31 -3 23 -8 27 -33 27 -24 0 -29 4 -29 24 0 22 -5 25 -54 31 -50 7 -55 10
-58 34 -3 24 -7 26 -55 29 -48 3 -53 5 -53 27 0 19 -6 24 -32 27 -28 2 -34 8
-36 31 -3 23 -8 27 -33 27 -25 0 -29 4 -29 29 0 27 -3 29 -55 36 -50 6 -55 9
-55 31 0 20 -5 24 -30 24 -27 0 -30 3 -30 30 0 27 -3 30 -30 30 -27 0 -30 3
-30 30 0 27 -3 30 -30 30 -25 0 -30 4 -30 25 0 21 -5 25 -30 25 -26 0 -30 3
-30 29 0 27 -3 29 -54 35 -50 7 -55 10 -58 34 -2 21 -9 28 -30 30 -22 3 -28 9
-28 28 0 19 -5 24 -24 24 -19 0 -25 6 -28 28 -2 21 -9 28 -30 30 -21 3 -27 9
-30 30 -2 21 -9 28 -30 30 -21 3 -27 9 -30 30 -2 21 -9 28 -29 30 -24 3 -27 8
-34 58 -6 49 -9 54 -31 54 -20 0 -24 5 -24 30 0 27 -3 30 -30 30 -27 0 -30 3
-30 30 0 27 -3 30 -30 30 -27 0 -30 3 -30 30 0 27 -3 30 -30 30 -27 0 -30 3
-30 30 0 25 -4 30 -24 30 -22 0 -25 5 -31 55 -7 49 -10 55 -31 55 -20 0 -24 5
-24 30 0 26 -3 30 -29 30 -27 0 -29 3 -35 54 l-7 55 -55 7 c-48 6 -54 9 -54
30 l0 24 -1575 0 -1575 0 0 -25 c0 -20 -5 -25 -25 -25 -21 0 -25 -5 -25 -30 0
-25 4 -30 25 -30 23 0 25 -4 25 -47 0 -27 3 -65 6 -85 6 -32 11 -38 30 -38 23
0 24 -4 24 -60 l0 -60 30 0 30 0 0 -84 0 -85 28 -3 c25 -3 27 -6 30 -60 3 -53
5 -57 30 -60 25 -3 27 -6 30 -60 3 -53 5 -58 26 -58 21 0 24 -6 31 -55 6 -49
9 -55 29 -55 21 0 24 -6 30 -60 6 -54 9 -60 30 -60 21 0 24 -6 30 -60 6 -55 9
-60 31 -60 21 0 25 -5 25 -30 0 -25 4 -30 25 -30 22 0 25 -5 31 -60 6 -54 9
-60 30 -60 20 0 23 -6 29 -55 7 -49 10 -55 30 -55 21 0 24 -6 30 -60 6 -54 9
-60 30 -60 18 0 24 -6 27 -27 2 -22 9 -29 29 -31 24 -3 27 -8 34 -58 6 -49 9
-54 31 -54 20 0 24 -5 24 -30 0 -27 3 -30 30 -30 27 0 30 -3 30 -30 0 -25 4
-30 24 -30 21 0 24 -6 30 -54 7 -50 10 -55 34 -58 22 -2 28 -9 30 -35 3 -27 8
-33 27 -33 21 0 24 -6 30 -55 7 -49 10 -55 31 -55 20 0 24 -5 24 -30 0 -27 3
-30 30 -30 27 0 30 -3 30 -30 0 -27 3 -30 30 -30 27 0 30 -3 30 -30 0 -25 4
-30 24 -30 22 0 25 -5 31 -54 7 -50 10 -55 34 -58 20 -2 27 -9 29 -30 3 -22 9
-28 28 -28 20 0 24 -5 24 -30 0 -27 3 -30 30 -30 27 0 30 -3 30 -30 0 -27 3
-30 30 -30 27 0 30 -3 30 -30 0 -27 3 -30 30 -30 27 0 30 -3 30 -30 0 -25 4
-30 25 -30 20 0 25 -5 25 -25 0 -21 5 -25 30 -25 27 0 30 -3 30 -30 0 -27 3
-30 30 -30 27 0 30 -3 30 -30 0 -27 3 -30 30 -30 27 0 30 -3 30 -30 0 -27 3
-30 30 -30 27 0 30 -3 30 -30 0 -27 3 -30 30 -30 27 0 30 -3 30 -30 0 -25 4
-30 25 -30 20 0 25 -5 25 -25 0 -21 5 -25 30 -25 27 0 30 -3 30 -30 0 -27 3
-30 30 -30 27 0 30 -3 30 -29 0 -26 4 -30 33 -33 24 -2 33 -8 35 -25 3 -17 10
-23 28 -23 20 0 24 -5 24 -29 0 -27 3 -29 54 -35 50 -7 55 -10 58 -34 2 -21 9
-28 31 -30 21 -3 27 -9 27 -28 0 -20 5 -24 30 -24 27 0 30 -3 30 -30 0 -27 3
-30 30 -30 27 0 30 -3 30 -30 l0 -30 60 0 60 0 0 -30 c0 -27 3 -30 30 -30 25
0 30 -4 30 -24 0 -19 6 -25 28 -28 21 -2 28 -9 30 -29 3 -24 8 -27 58 -34 49
-6 54 -9 54 -31 0 -20 5 -24 30 -24 27 0 30 -3 30 -30 0 -30 1 -30 55 -30 54
0 55 0 55 -30 0 -28 3 -30 35 -30 30 0 35 -3 35 -24 0 -22 5 -25 54 -31 50 -7
55 -10 58 -34 3 -24 7 -26 61 -29 53 -3 57 -5 57 -27 0 -18 6 -24 28 -27 21
-2 28 -9 30 -31 3 -26 6 -27 58 -27 53 0 54 0 54 -30 l0 -30 60 0 60 0 0 -30
c0 -30 1 -30 54 -30 52 0 55 -1 58 -28 3 -25 6 -27 60 -30 53 -3 57 -5 60 -30
3 -25 6 -27 61 -30 52 -3 57 -5 57 -27 0 -21 6 -24 60 -30 55 -6 60 -9 60 -31
0 -22 4 -24 55 -24 54 0 55 0 55 -30 0 -29 1 -30 48 -30 26 0 64 -3 85 -6 31
-6 37 -11 37 -30 0 -23 3 -24 65 -24 62 0 65 -1 65 -24 0 -19 6 -24 38 -30 20
-3 58 -6 85 -6 43 0 47 -2 47 -24 0 -20 6 -24 46 -30 26 -3 64 -6 85 -6 34 0
39 -3 39 -24 0 -21 6 -24 53 -30 28 -3 69 -6 90 -6 33 0 37 -3 37 -25 0 -24 2
-25 69 -25 37 0 89 -3 115 -6 40 -6 46 -10 46 -30 l0 -24 2040 0 2040 0 0 24
c0 20 6 24 46 30 26 3 78 6 115 6 66 0 69 1 69 24 0 20 6 24 46 30 26 3 66 6
90 6 40 0 44 2 44 24 0 21 6 24 53 30 28 3 67 6 85 6 27 0 32 4 32 25 0 23 4
24 63 27 59 3 62 4 65 31 l3 27 85 0 84 0 0 30 0 30 60 0 c57 0 60 1 60 25 0
22 5 25 60 31 53 6 60 9 60 29 0 18 7 24 38 29 20 3 56 6 80 6 38 0 42 3 42
24 0 21 5 24 60 30 54 6 60 9 60 30 0 21 6 24 60 30 55 6 60 9 60 31 0 23 3
25 54 25 52 0 55 1 58 28 2 22 8 28 36 30 26 3 32 8 32 27 0 21 6 24 55 30 49
7 55 10 55 30 0 21 6 24 60 30 54 6 60 9 60 30 0 20 6 23 55 30 50 6 55 9 55
31 0 20 5 24 30 24 27 0 30 3 30 30 l0 30 60 0 60 0 0 30 c0 27 3 30 30 30 25
0 30 4 30 24 0 22 5 25 54 31 50 7 55 10 58 34 2 20 9 27 31 29 21 3 27 9 27
27 0 21 6 24 60 30 55 6 60 9 60 31 0 20 5 24 30 24 27 0 30 3 30 30 0 27 3
30 30 30 27 0 30 3 30 30 0 27 3 30 30 30 25 0 30 4 30 24 0 22 5 25 55 31 52
7 55 9 55 36 0 26 4 29 30 29 25 0 30 4 30 25 0 21 5 25 30 25 27 0 30 3 30
30 0 27 3 30 30 30 27 0 30 3 30 30 0 27 3 30 30 30 25 0 30 4 30 24 0 22 5
25 55 31 52 7 55 9 55 36 0 26 4 29 30 29 27 0 30 3 30 30 0 27 3 30 30 30 27
0 30 3 30 30 0 27 3 30 30 30 25 0 30 4 30 25 0 20 5 25 25 25 21 0 25 5 25
30 0 27 3 30 30 30 27 0 30 3 30 30 0 27 3 30 30 30 27 0 30 3 30 30 0 27 3
30 30 30 27 0 30 3 30 30 0 27 3 30 30 30 27 0 30 3 30 30 0 25 4 30 24 30 22
0 25 5 31 55 7 52 9 55 36 55 24 0 29 4 29 24 0 19 6 25 28 28 22 2 28 8 30
36 3 26 7 32 28 32 19 0 24 5 24 25 0 21 5 25 30 25 27 0 30 3 30 30 0 27 3
30 30 30 28 0 30 3 30 35 0 30 3 35 24 35 21 0 25 6 31 49 6 44 10 50 33 53
22 2 28 9 30 36 3 26 8 32 27 32 18 0 24 6 27 28 2 21 9 28 29 30 24 3 27 8
34 58 6 49 9 54 31 54 20 0 24 5 24 30 0 27 3 30 30 30 30 0 30 1 30 54 0 52
1 55 28 58 21 2 28 9 30 31 3 21 9 27 27 27 21 0 24 6 30 60 6 55 9 60 31 60
20 0 24 5 24 30 0 26 3 30 29 30 27 0 29 3 36 55 6 50 9 55 31 55 21 0 24 5
24 35 0 32 2 35 30 35 30 0 30 1 30 55 0 51 2 55 24 55 22 0 25 5 31 60 6 54
9 60 30 60 20 0 23 6 30 55 6 49 9 55 29 55 21 0 24 6 30 60 6 54 9 60 31 60
21 0 24 6 30 60 6 55 9 60 31 60 22 0 24 4 24 55 0 54 0 55 30 55 l30 0 0 60
c0 56 1 60 24 60 20 0 24 6 30 46 3 26 6 64 6 85 0 34 3 39 24 39 22 0 25 5
31 60 6 55 9 60 31 60 22 0 24 4 24 48 0 26 3 64 6 85 6 31 11 37 30 37 22 0
24 4 24 44 0 24 3 64 6 90 6 40 10 46 30 46 22 0 23 3 26 88 3 87 3 87 31 90
l27 3 0 84 0 84 28 3 27 3 3 113 c3 110 3 112 26 112 23 0 24 3 31 120 7 118
8 120 31 120 23 0 24 3 24 63 0 34 3 99 7 145 6 78 7 82 29 82 24 0 24 0 24
129 0 70 3 149 6 175 6 40 10 46 30 46 l24 0 0 349 0 350 28 3 27 3 1 120 c1
66 -1 209 -4 317 -5 191 -6 197 -26 200 -21 3 -21 6 -24 351 l-2 347 -24 0
c-22 0 -23 4 -30 92 -3 50 -6 142 -6 205 0 112 0 113 -24 113 -20 0 -24 6 -30
46 -3 26 -6 80 -6 120 0 72 -1 74 -25 74 -24 0 -25 3 -25 58 0 31 -3 94 -7
140 -6 78 -7 82 -29 82 -23 0 -24 2 -24 90 l0 90 -30 0 -30 0 0 78 c0 120 -8
152 -36 152 -23 0 -24 2 -24 90 l0 90 -30 0 -30 0 0 84 0 85 -27 3 c-27 3 -28
6 -31 61 -3 53 -5 57 -27 57 -22 0 -25 4 -25 39 0 21 -3 59 -6 85 -6 39 -10
46 -29 46 -20 0 -23 7 -29 60 -6 55 -9 60 -31 60 -24 0 -25 3 -25 60 l0 60
-30 0 -30 0 0 60 c0 57 -1 60 -25 60 -22 0 -25 5 -31 60 -6 54 -9 60 -30 60
-20 0 -23 6 -29 55 -7 49 -10 55 -31 55 -21 0 -23 5 -26 58 -3 54 -4 57 -30
60 -27 3 -28 6 -28 58 0 53 0 54 -30 54 l-30 0 0 60 0 60 -30 0 c-30 0 -30 1
-30 55 0 54 0 55 -30 55 -27 0 -30 3 -30 30 0 25 -4 30 -24 30 -22 0 -25 5
-31 60 -7 58 -8 60 -36 60 -26 0 -29 4 -29 30 0 25 -4 30 -24 30 -21 0 -24 6
-31 55 -6 50 -9 55 -31 55 -20 0 -24 5 -24 29 0 25 -4 30 -27 33 -27 3 -28 6
-31 61 -3 56 -4 57 -32 57 -27 0 -30 3 -30 30 0 27 -3 30 -30 30 -27 0 -30 3
-30 30 0 25 -4 30 -24 30 -22 0 -25 5 -31 54 -7 50 -10 55 -34 58 -20 2 -27 9
-29 31 -3 21 -9 27 -28 27 -20 0 -24 5 -24 30 0 27 -3 30 -30 30 -27 0 -30 3
-30 30 0 25 -4 30 -24 30 -22 0 -25 5 -31 55 -7 52 -9 55 -36 55 -26 0 -29 4
-29 30 0 27 -3 30 -30 30 -27 0 -30 3 -30 30 0 25 -4 30 -25 30 -21 0 -25 5
-25 30 0 27 -3 30 -30 30 -27 0 -30 3 -30 30 0 27 -3 30 -30 30 -27 0 -30 3
-30 30 0 27 -3 30 -30 30 -25 0 -30 4 -30 24 0 19 -6 25 -27 28 -22 2 -29 9
-31 31 -3 21 -9 27 -28 27 -20 0 -24 5 -24 30 0 27 -3 30 -30 30 -27 0 -30 3
-30 30 0 27 -3 30 -30 30 -27 0 -30 3 -30 30 0 27 -3 30 -30 30 -27 0 -30 3
-30 30 0 27 -3 30 -30 30 -25 0 -30 4 -30 24 0 19 -6 25 -27 28 -22 2 -29 9
-31 31 -3 23 -8 27 -33 27 -26 0 -29 3 -29 30 0 30 -1 30 -55 30 -54 0 -55 0
-55 30 0 27 -3 30 -30 30 -27 0 -30 3 -30 30 0 27 -3 30 -30 30 -27 0 -30 3
-30 30 0 27 -3 30 -30 30 -25 0 -30 4 -30 24 0 19 -6 25 -27 28 -22 2 -29 9
-31 31 -3 26 -6 27 -58 27 -53 0 -54 0 -54 30 0 27 -3 30 -30 30 -27 0 -30 3
-30 30 0 30 -1 30 -54 30 -52 0 -55 1 -58 28 -2 21 -9 28 -30 30 -21 3 -27 9
-30 30 -2 21 -9 28 -30 30 -22 3 -28 9 -28 27 0 21 -6 24 -60 30 -55 6 -60 9
-60 31 0 20 -5 24 -30 24 -27 0 -30 3 -30 30 0 30 -1 30 -55 30 -54 0 -55 0
-55 30 l0 30 -60 0 -60 0 0 30 c0 27 -3 30 -30 30 -25 0 -30 4 -30 24 0 22 -5
25 -60 31 -54 6 -60 9 -60 30 0 20 -6 23 -55 30 -49 6 -55 9 -55 30 0 21 -6
24 -60 30 -55 6 -60 9 -60 31 0 22 -4 24 -55 24 -54 0 -55 0 -55 30 l0 30 -60
0 c-57 0 -60 1 -60 25 0 21 -5 25 -30 25 l-30 0 0 -1775z"/>
</g>
</svg>
